<?xml version="1.0" encoding="utf-8"?>
<!-- Generator: Adobe Illustrator 25.2.1, SVG Export Plug-In . SVG Version: 6.00 Build 0)  -->
<svg version="1.1" id="Слой_1" xmlns="http://www.w3.org/2000/svg" xmlns:xlink="http://www.w3.org/1999/xlink" x="0px" y="0px"
	 viewBox="0 0 3200 2000" style="enable-background:new 0 0 3200 2000;" xml:space="preserve">
<style type="text/css">
	.st0{fill:#FFFFFF;}
	.st1{fill:#EBF3FA;}
	.st2{fill:#DFEBFD;}
	.st3{fill:#CDE0FB;}
	.st4{fill:#ABDDDA;}
	.st5{fill:#F99746;}
	.st6{display:none;}
	.st7{display:inline;fill:#ABDDDA;}
	.st8{opacity:0.5;}
	.st9{fill:#FFB27D;}
	.st10{fill:#233862;}
	.st11{fill:#F9DDBF;}
	.st12{fill:#EF7E29;}
	.st13{fill:#2B478B;}
	.st14{fill:#ED985F;}
	.st15{fill:#2C3A64;}
</style>
<rect class="st0" width="3200" height="2000"/>
<g>
	<path class="st1" d="M376.91,1810.91c0,0-197.99-243.63-100.13-714.2c61.55-295.98,320.12-442.62,666.74-428.62
		c119.15,4.81,313.01-138.6,591.55-314.77C2130.89-23.5,2992.74,136.54,2786.47,984.15c-99.82,410.18,313.98,416.75,108.32,826.77
		H376.91z"/>
	<path class="st2" d="M2580.89,524.46c-0.91-59.83-99.8-66.38-99.8-66.38s-89.07,81.61-108.32,79.19
		c-19.25-2.42,62.52-84.64,62.52-84.64c-35.25-12.7-138.65,8.15-138.65,8.15s-23.27,115.75-41.33,108.67
		c-18.06-7.08,25.83-101.44,25.83-101.44c-37.65,1.59-80.69,34.08-80.69,34.08c-57.73,56.07,17.25,127.31,17.25,127.31
		s-8.93,39.94-44.99,79.18l0,0c0,0-7.66,6.99-16.91,19.83l9.54,2.43c1.43-2.36,2.92-4.61,4.47-6.74c0-0.02,0.01-0.03,0.03-0.04
		c0.02-0.03,0.05-0.06,0.07-0.09c1.03-1.31,2.5-3.17,4.32-5.42c0,0,0-0.01,0.01-0.01c0-0.01,0.01,0,0.01-0.01
		c4.37-4.96,7.41-8.67,9.43-11.4c0.01-0.01,0.01-0.02,0.02-0.03c13.29-15.68,31.8-35.8,41.44-38.56c0,0-0.68-1.75-0.93-4.89
		c0.3,1.56,0.6,3.19,0.93,4.89c7.42,39.14,87.55,65.75,135.4,68c47.85,2.25,31.29-15.62,12.11-42.67
		c-19.18-27.05-71.88-34.63-84.96-46.65c-13.08-12.02,11.15-14.54,40.87-4.49c29.72,10.05,37.16,44.23,84.94,61.36
		s108.55-65.48,108.55-65.48c-36.49,1.88-92.37-32.21-91.73-44.46c0.64-12.25,90.12,11.77,105,11.84
		C2550.18,606.04,2581.79,584.29,2580.89,524.46z"/>
	<path class="st3" d="M2666.45,1109.92c46.55-78.71-77.14-166.16-77.14-166.16s-181.22,35.33-204.38,16.82
		c-23.16-18.51,149.04-60.46,149.04-60.46c-35.82-44.68-187.24-99.99-187.24-99.99s-122.67,132.33-140.57,108.69
		c-17.9-23.64,114.6-111.63,114.6-111.63c-50.35-27.97-132.38-19.94-132.38-19.94c-119.99,27.03-79.08,179.71-79.08,179.71
		s-43.5,44.94-121.82,67.32h0c0,0-15.57,3-37.87,12.35l10.49,10.77c3.75-1.93,7.48-3.68,11.21-5.22c0.02-0.02,0.04-0.03,0.07-0.03
		c0.05-0.02,0.11-0.04,0.16-0.07c2.38-0.88,5.79-2.13,9.96-3.62c0,0,0.01,0,0.02,0c0.01-0.01,0.01,0,0.02-0.01
		c9.65-2.99,16.58-5.4,21.38-7.34c0.02-0.01,0.03-0.01,0.04-0.02c29.83-9.84,70.02-21.3,84.78-17.21c0,0,0.52-2.83,2.7-7.12
		c-0.86,2.27-1.76,4.64-2.7,7.12c-21.55,56.93,61.68,155.55,122.25,196.66c60.58,41.11,53.25,4.6,49.83-45.97
		c-3.43-50.57-66.08-102.49-73.54-128.59c-7.46-26.11,26.14-10.06,56.87,26.75c30.73,36.81,13.16,87.3,61.78,147.75
		c48.62,60.46,193.74,1.24,193.74,1.24c-49.06-26.65-94.71-115.68-84.1-131.14c10.61-15.47,108.09,87.24,127.43,99.2
		C2561.35,1191.77,2619.91,1188.63,2666.45,1109.92z"/>
	<path class="st3" d="M992.95,817.16c27.6-56.68,124.9-18.74,124.9-18.74s48.51,117.67,67.96,123.97
		c19.45,6.29-21.83-108.71-21.83-108.71c39.31,3.63,128.65,69.74,128.65,69.74s-29.53,120.84-9.13,122.16
		c20.4,1.31,20.69-108.33,20.69-108.33c35.22,18.34,61.76,68.58,61.76,68.58c30.03,79.3-73.35,113.76-73.35,113.76
		s-9.33,42.1,7.55,95.65c0,0,0,0,0,0s4.19,10.09,7.28,26.48l-10.18-1.94c-0.31-2.89-0.72-5.71-1.25-8.43c0-0.02,0-0.03-0.01-0.05
		c-0.01-0.04-0.02-0.08-0.02-0.12c-0.4-1.71-0.97-4.14-1.7-7.1c0,0,0-0.01,0-0.01c0-0.01-0.01-0.01,0-0.01
		c-1.95-6.69-3.19-11.59-3.9-15.09c0-0.01,0-0.02,0-0.03c-5.67-20.9-14.35-48.38-22.31-55.31c0,0,1.43-1.37,3.07-4.25
		c-0.98,1.36-2,2.77-3.07,4.25c-24.57,34.03-112.92,23.61-159.58,4.38c-46.66-19.23-22.88-28.89,7.52-46.13
		c30.39-17.24,84.06-0.92,101.92-6.54c17.85-5.62-4.14-18.86-36.99-22.55c-32.85-3.69-55.22,25.59-108.47,20.59
		c-53.25-5.01-74.31-110.98-74.31-110.98c33.97,18.1,102.53,10.54,107.39-1.43c4.87-11.98-91.25-29.04-105.48-35.63
		C985.79,908.72,965.35,873.84,992.95,817.16z"/>
	<g>
		<rect x="1193.56" y="308.7" class="st4" width="1109.66" height="1490.82"/>
		<rect x="1258.63" y="357.02" class="st0" width="991.7" height="1375.62"/>
		<path class="st5" d="M1552.23,308.7v50.5c0,27.89,22.59,50.5,50.45,50.5h271.01c27.87,0,50.45-22.61,50.45-50.5v-50.5H1552.23z"/>
	</g>
	<g>
		<g class="st6">
			<path class="st7" d="M1470.11,616.94h-14.08v-65.2h14.08V616.94z"/>
			<path class="st7" d="M1548.35,616.94h-14.08l-27.41-42.9v42.9h-14.08v-65.2h14.08l27.46,42.99v-42.99h14.03V616.94z"/>
			<path class="st7" d="M1605.7,599.83c0-1.13-0.17-2.16-0.52-3.07c-0.34-0.91-1.01-1.75-2-2.53c-0.99-0.78-2.35-1.54-4.08-2.28
				c-1.74-0.75-3.98-1.54-6.74-2.37c-3.13-0.95-6.08-2.03-8.85-3.22c-2.77-1.19-5.19-2.6-7.28-4.23c-2.08-1.63-3.72-3.5-4.93-5.62
				c-1.21-2.12-1.81-4.6-1.81-7.43c0-2.72,0.62-5.2,1.85-7.46c1.24-2.25,2.97-4.17,5.21-5.75c2.24-1.58,4.9-2.81,7.98-3.69
				c3.08-0.88,6.47-1.32,10.16-1.32c3.79,0,7.23,0.5,10.33,1.5c3.1,1,5.74,2.4,7.93,4.19c2.19,1.79,3.88,3.92,5.07,6.38
				c1.19,2.46,1.78,5.16,1.78,8.08h-14.08c0-1.37-0.23-2.64-0.68-3.81c-0.45-1.16-1.15-2.16-2.09-3c-0.94-0.84-2.11-1.48-3.52-1.95
				c-1.41-0.46-3.07-0.69-4.98-0.69c-1.85,0-3.45,0.19-4.81,0.58c-1.36,0.39-2.49,0.93-3.38,1.61c-0.89,0.69-1.56,1.49-2.02,2.42
				c-0.45,0.93-0.68,1.91-0.68,2.96c0,2.15,1.15,3.95,3.45,5.4c2.3,1.45,5.67,2.8,10.12,4.05c3.72,1.1,7,2.33,9.83,3.67
				c2.83,1.34,5.19,2.87,7.09,4.57s3.33,3.61,4.3,5.73c0.97,2.12,1.45,4.52,1.45,7.21c0,2.87-0.59,5.42-1.76,7.66
				c-1.17,2.24-2.84,4.13-5,5.67s-4.76,2.72-7.82,3.54c-3.05,0.82-6.45,1.23-10.21,1.23c-2.25,0-4.51-0.19-6.76-0.56
				c-2.25-0.37-4.41-0.95-6.45-1.72c-2.05-0.78-3.95-1.75-5.7-2.91c-1.75-1.16-3.28-2.54-4.58-4.12c-1.3-1.58-2.32-3.38-3.05-5.4
				c-0.74-2.02-1.1-4.25-1.1-6.69h14.13c0,1.97,0.33,3.64,0.99,5.02c0.66,1.37,1.57,2.48,2.75,3.34c1.17,0.85,2.59,1.47,4.25,1.86
				c1.66,0.39,3.5,0.58,5.54,0.58c1.81,0,3.4-0.19,4.74-0.56c1.35-0.37,2.46-0.89,3.33-1.54c0.88-0.66,1.53-1.44,1.95-2.35
				C1605.49,601.85,1605.7,600.88,1605.7,599.83z"/>
			<path class="st7" d="M1690.7,551.74v43.03c0,3.76-0.66,7.08-1.97,9.96c-1.31,2.88-3.13,5.29-5.45,7.23
				c-2.32,1.94-5.08,3.4-8.29,4.39c-3.21,0.98-6.7,1.48-10.49,1.48c-3.82,0-7.33-0.49-10.54-1.48c-3.21-0.98-5.97-2.45-8.29-4.39
				c-2.32-1.94-4.12-4.35-5.42-7.23c-1.3-2.88-1.95-6.2-1.95-9.96v-43.03h14.08v43.03c0,4.27,1.07,7.38,3.21,9.34
				c2.14,1.96,5.11,2.93,8.9,2.93c3.82,0,6.78-0.98,8.89-2.93c2.11-1.96,3.17-5.07,3.17-9.34v-43.03H1690.7z"/>
			<path class="st7" d="M1737.16,593.07h-11.22v23.87h-14.08v-65.2h25.39c3.94,0,7.48,0.42,10.61,1.28
				c3.13,0.85,5.77,2.11,7.93,3.76c2.16,1.66,3.82,3.71,4.98,6.16c1.16,2.45,1.74,5.28,1.74,8.51c0,2.39-0.28,4.53-0.85,6.43
				c-0.56,1.9-1.38,3.58-2.44,5.06c-1.07,1.48-2.35,2.77-3.85,3.87c-1.5,1.11-3.19,2.06-5.07,2.87l14.79,26.64v0.63h-15.11
				L1737.16,593.07z M1725.94,582.19h11.36c1.85,0,3.46-0.23,4.86-0.69c1.39-0.46,2.55-1.12,3.47-1.97
				c0.92-0.85,1.62-1.87,2.09-3.04c0.47-1.18,0.71-2.5,0.71-3.96c0-3.07-0.92-5.49-2.75-7.25c-1.83-1.76-4.64-2.64-8.42-2.64h-11.31
				V582.19z"/>
			<path class="st7" d="M1821.41,603.5h-24.69l-4.69,13.43h-14.97l25.44-65.2h13.05l25.58,65.2h-14.97L1821.41,603.5z
				 M1800.52,592.62h17.09l-8.59-24.4L1800.52,592.62z"/>
			<path class="st7" d="M1912.7,616.94h-14.08l-27.41-42.9v42.9h-14.08v-65.2h14.08l27.46,42.99v-42.99h14.04V616.94z"/>
			<path class="st7" d="M1988.26,595.22c-0.25,3.31-1.03,6.36-2.35,9.13c-1.31,2.78-3.13,5.16-5.45,7.14
				c-2.32,1.99-5.12,3.54-8.42,4.66c-3.3,1.12-7.06,1.68-11.29,1.68c-4.38,0-8.32-0.72-11.81-2.17c-3.49-1.45-6.45-3.53-8.87-6.25
				c-2.43-2.72-4.29-6.01-5.59-9.87c-1.3-3.87-1.95-8.2-1.95-13.01v-4.3c0-4.81,0.67-9.15,2.02-13.03c1.34-3.88,3.25-7.18,5.7-9.9
				c2.46-2.72,5.44-4.81,8.94-6.27c3.5-1.46,7.42-2.19,11.73-2.19c4.26,0,8.02,0.57,11.29,1.72c3.27,1.15,6.05,2.75,8.33,4.79
				c2.29,2.05,4.07,4.48,5.35,7.3c1.28,2.82,2.1,5.89,2.44,9.2h-14.08c-0.16-1.94-0.51-3.66-1.06-5.15
				c-0.55-1.49-1.34-2.75-2.37-3.76c-1.03-1.01-2.36-1.78-3.99-2.31c-1.63-0.52-3.6-0.78-5.92-0.78c-4.76,0-8.3,1.65-10.63,4.95
				c-2.33,3.3-3.5,8.41-3.5,15.34v4.39c0,3.37,0.26,6.33,0.77,8.87s1.33,4.66,2.44,6.36c1.11,1.7,2.55,2.98,4.32,3.83
				c1.77,0.85,3.9,1.28,6.41,1.28c2.22,0,4.14-0.24,5.75-0.72c1.61-0.48,2.96-1.2,4.04-2.17c1.08-0.97,1.92-2.19,2.51-3.65
				c0.59-1.46,0.97-3.16,1.13-5.1H1988.26z"/>
			<path class="st7" d="M2048.24,588.68h-27.04v17.46h31.73v10.79h-45.81v-65.2h45.72v10.88h-31.64v15.54h27.04V588.68z"/>
		</g>
		<g>
			<path class="st5" d="M1809.69,1502.21c-15.73,5.1-31.08,7.76-43.14,6.75c-18.39-1.53-28.75-11.17-29.16-27.14
				c-0.33-12.67,4.93-23.77,15.24-32.76c-0.1-0.86-0.18-1.73-0.25-2.6c-0.68-8.93,1.23-14.87,5.67-17.64
				c7.18-4.48,17.85,1.65,18.3,1.91l-2.39,4.08c-2.39-1.39-9.49-4.45-13.42-1.98c-3.39,2.12-3.79,7.97-3.5,12.72
				c8.39-6.07,19.34-11.03,32.7-14.63c9.87-2.68,20.87-4.46,30.81-5.26c0.05-1.11,0.14-2.11,0.27-2.92
				c0.32-2.19,1.09-4.76,3.24-5.27c0.82-0.18,2.4-0.16,3.81,1.99c0.9,1.38,1.36,3.36,1.45,5.74c3.42-0.08,6.61-0.02,9.42,0.19
				c0.03-0.06,0.05-0.12,0.08-0.18c-0.69-5.6-0.2-12.19,0.73-16.45c1.2-5.47,3.16-8.24,5.91-8.5c1.65-0.15,3.09,0.74,3.74,2.32
				c1.54,3.71-1.35,13.73-5.52,23.34c0,0.02,0,0.03,0.01,0.05c3.92,0.66,6.58,1.75,7.41,3.26c0.63,1.14,0.71,2.9-0.95,4.43
				c-3.16,2.91-5.69,2.18-6.91,1.48c-1.03-0.59-1.87-1.6-2.53-2.9c-3.16,6.25-6.61,11.6-9.31,13.86c-2.49,2.1-4.68,1.26-5.5,0.8
				c-0.43-0.24-0.83-0.56-1.2-0.96c-1.08,2.62-2.29,5.16-3.6,7.44c-4.94,8.67-10.51,13.14-16.1,12.87
				c-2.29-0.11-4.32-1.02-6.03-2.67c-3.09,6.69-6.98,13.06-10.84,17.82c-3.93,4.84-8.94,6.62-14.11,5
				c-9.16-2.86-17.45-16.12-20.56-31.83c-7.83,7.66-11.64,16.73-11.38,27.13c0.35,13.62,8.71,21.21,24.83,22.55
				c40.7,3.39,112.06-34.45,117.46-62.29l0,0C1880,1464.61,1846.14,1490.4,1809.69,1502.21z M1757.63,1450.95
				c2.48,16.57,10.78,28.75,17.81,30.95c3.3,1.03,6.34-0.14,9.03-3.47c4.58-5.66,8.54-12.64,11.38-19.45
				c-0.82-1.76-1.47-3.82-1.96-6.17c-1.14-5.46-1.33-12.96,0.02-18.1c-7.6,1.88-15.22,4.42-22.28,7.75
				C1766.23,1445.03,1761.56,1447.86,1757.63,1450.95z M1801.08,1458.7c1.01,1.54,2.36,2.75,4.16,2.83
				c3.58,0.15,7.88-3.66,11.78-10.49c2.03-3.56,3.65-7.36,4.87-11.01c-0.79-2.96-1.19-6.42-1.33-9.6
				c-5.24,0.42-10.95,1.13-16.82,2.19C1806.8,1438.58,1805.03,1448.66,1801.08,1458.7z M1826.82,1440.11
				c0.74,2.22,1.4,2.65,1.4,2.66c2.64-2.27,5.65-7.18,8.4-12.78c-2.24-0.08-4.77-0.1-7.52-0.03
				C1828.71,1433.12,1827.92,1436.61,1826.82,1440.11z M1799.09,1434.04c-1.2,2.51-2.06,10.53-0.6,17.67
				C1800.85,1443.88,1801.34,1437.11,1799.09,1434.04z M1845.6,1431.03c0.01,0.01,0.02,0,0.03,0.01
				C1845.61,1431.03,1845.61,1431.03,1845.6,1431.03z M1844.9,1406.79c-0.42,1.21-0.82,2.93-1.12,4.94
				C1844.34,1409.79,1844.73,1408.09,1844.9,1406.79z"/>
		</g>
		<g>
			<g>
				<path class="st4" d="M1573.07,803.74h-179.36V624.38h179.36V803.74z M1402.16,795.29h162.46V632.83h-162.46V795.29z"/>
			</g>
			<g>
				<path class="st5" d="M1487.85,767.69c-3.76,0-7.35-1.67-9.77-4.6l-55.35-66.95c-4.46-5.39-3.7-13.38,1.69-17.84
					c5.39-4.46,13.38-3.7,17.84,1.69l43.89,53.1l79.41-133.28c3.58-6.01,11.36-7.98,17.37-4.4c6.01,3.58,7.98,11.36,4.4,17.37
					l-88.61,148.72c-2.11,3.54-5.81,5.83-9.91,6.15C1488.49,767.68,1488.17,767.69,1487.85,767.69z"/>
			</g>
		</g>
		<g>
			<g>
				<path class="st4" d="M1573.07,1084.18h-179.36V904.82h179.36V1084.18z M1402.16,1075.74h162.46V913.27h-162.46V1075.74z"/>
			</g>
			<g>
				<path class="st5" d="M1487.85,1046.59c-3.76,0-7.35-1.67-9.77-4.6l-55.35-66.95c-4.46-5.39-3.7-13.38,1.69-17.84
					c5.39-4.46,13.38-3.7,17.84,1.69l43.89,53.1l79.41-133.27c3.58-6.01,11.36-7.98,17.37-4.4c6.01,3.58,7.98,11.36,4.4,17.37
					l-88.61,148.72c-2.11,3.54-5.81,5.83-9.91,6.15C1488.49,1046.58,1488.17,1046.59,1487.85,1046.59z"/>
			</g>
		</g>
		<g>
			<g>
				<path class="st4" d="M1573.07,1358.82h-179.36v-179.36h179.36V1358.82z M1402.16,1350.37h162.46v-162.46h-162.46V1350.37z"/>
			</g>
			<g>
				<path class="st5" d="M1487.85,1318.58c-3.76,0-7.35-1.67-9.77-4.6l-55.35-66.95c-4.46-5.39-3.7-13.38,1.69-17.84
					c5.39-4.46,13.38-3.7,17.84,1.69l43.89,53.1l79.41-133.28c3.58-6.01,11.36-7.98,17.37-4.4c6.01,3.58,7.98,11.36,4.4,17.37
					l-88.61,148.72c-2.11,3.54-5.81,5.83-9.91,6.15C1488.49,1318.57,1488.17,1318.58,1487.85,1318.58z"/>
			</g>
		</g>
		<g class="st8">
			<g>
				<rect x="1693.95" y="666.23" class="st4" width="233.88" height="17.5"/>
				<rect x="2073.39" y="666.23" class="st4" width="53.16" height="17.5"/>
			</g>
			<g>
				<rect x="1693.95" y="744.39" class="st4" width="233.88" height="17.5"/>
				<rect x="2047.3" y="744.39" class="st4" width="79.25" height="17.5"/>
			</g>
			<g>
				<rect x="2061.41" y="705.31" class="st4" width="65.14" height="17.5"/>
				<rect x="1866.74" y="705.31" class="st4" width="65.14" height="17.5"/>
				<rect x="1693.95" y="705.31" class="st4" width="144.74" height="17.5"/>
			</g>
		</g>
		<g class="st8">
			<g>
				<rect x="1693.95" y="935.58" class="st4" width="224.95" height="17.5"/>
			</g>
			<g>
				<rect x="1693.95" y="1013.74" class="st4" width="233.88" height="17.5"/>
			</g>
			<g>
				<rect x="1855.46" y="974.66" class="st4" width="60.53" height="17.5"/>
				<rect x="1693.95" y="974.66" class="st4" width="144.74" height="17.5"/>
			</g>
		</g>
		<g class="st8">
			<g>
				<rect x="1693.95" y="1212.56" class="st4" width="233.88" height="17.5"/>
			</g>
			<g>
				<rect x="1693.95" y="1290.72" class="st4" width="233.88" height="17.5"/>
			</g>
			<g>
				<rect x="1855.46" y="1251.64" class="st4" width="101.71" height="17.5"/>
				<rect x="1693.95" y="1251.64" class="st4" width="144.74" height="17.5"/>
			</g>
		</g>
		<g>
			<rect x="1377.1" y="1622.6" class="st4" width="122.7" height="12.42"/>
			<rect x="1528.21" y="1622.6" class="st4" width="122.7" height="12.42"/>
			<rect x="1377.1" y="1650.16" class="st4" width="170.16" height="12.42"/>
		</g>
	</g>
	<g>
		<g>
			<path class="st9" d="M2188.32,1220.23c0,0,9.1,28.01,8.31,34.42c-0.78,6.41-6.49,28.3-10.57,33.9c-4.08,5.6-6.09-22.82-9.32-27.1
				c-3.23-4.28-0.66,10.7-2.94,12.09c-2.28,1.39-7.02-11.02-9.06-15.39s4.99-20.51,5.01-31.76
				C2169.77,1215.14,2188.32,1220.23,2188.32,1220.23z"/>
			<path class="st10" d="M1974.41,997.73c-2.52-32.12,32.37-54.14,59.92-37.44c0.57,0.34,1.12,0.69,1.68,1.05
				c41.25,26.55,130.24,150.43,136.37,162.84c6.12,12.41,24.2,111.14,24.2,111.14s-22.34,8.17-32.79-0.31
				c0,0-36.23-93.63-41.59-98.31c-5.36-4.68-144.92-82.99-146.11-112.35C1975.78,1016.59,1975.16,1007.26,1974.41,997.73z"/>
		</g>
		<g>
			
				<rect x="1690.44" y="901.05" transform="matrix(-0.3288 -0.9444 0.9444 -0.3288 1332.1686 2934.499)" class="st5" width="36.9" height="185.61"/>
			<polygon class="st11" points="1580.49,1038.55 1627.31,1041.79 1615.17,1006.94 			"/>
			<path class="st11" d="M1814.86,950.38l3.83,11.02c2.36,6.78-1.22,14.18-8,16.54l-8.11,2.82l-12.13-34.85l8.82-3.07
				C1805.66,940.62,1812.64,944,1814.86,950.38z"/>
		</g>
		<g>
			<path class="st10" d="M2223.46,1722.82c0,0,16.63,15.18,13.38,25.96c-3.24,10.78-18.25,17.97-20.28,31.15
				c-2.03,13.18-10.14,20.37-17.44,20.37s-34.81,0-34.81,0s-5.37-9.27,7.61-12.07c12.98-2.79,17.87-18.28,17.06-32.66
				c-0.81-14.38,1.22-33.55,1.22-33.55l27.58-6.39L2223.46,1722.82z"/>
			<path class="st10" d="M2019.44,1762.07c0,0,2.98,34.54-4.32,38.13l-93.43-0.19c0,0,0-10.78,15.01-13.18
				c15.01-2.4,41.37-11.18,45.83-30.75C1986.99,1736.51,2019.44,1762.07,2019.44,1762.07z"/>
			<path class="st5" d="M1940.55,1274.18c0,0,4.93,60.54,10.72,133.32c7.87,98.86,17.34,220.29,18.28,243.3
				c1.62,39.95,8.12,103.84,8.12,103.84s15.41,15.18,46.24,8.78c0,0,27.48-91.21,35.32-187.72c0.12-1.58,0.24-3.18,0.37-4.77
				c7.3-98.25,18.65-305.13,18.65-305.13L1940.55,1274.18z"/>
			<path class="st12" d="M1940.55,1274.18c0,0,4.93,60.54,10.72,133.32l107.96,168.2c0.12-1.58,0.24-3.18,0.37-4.77
				c7.3-98.25,18.65-305.13,18.65-305.13L1940.55,1274.18z"/>
			<path class="st5" d="M1963.06,1281.37c0,0,88.83,219.26,147.23,322.3c58.41,103.04,76.66,131.8,76.66,131.8
				s33.46-13.18,36.5-22.17c0,0-22.33-198.92-61.45-247.42c-22.1-27.4-48.06-109.63-49.28-138.39c-1.22-28.76-7.91-85.67-7.91-85.67
				L1963.06,1281.37z"/>
		</g>
		<path class="st9" d="M2039.65,952.47c0,0-59.51,30.19-94.37,20.12c0,0,8.31-10.93,23.08-19.23c-1.34-6.93-2.39-12.95-3.02-18.05
			c-1.7-11.78-1.83-18.47-1.83-18.47l22.82-18.69l21.64-17.89C2007.2,929.36,2039.65,952.47,2039.65,952.47z"/>
		<path class="st13" d="M2098.77,1259.18c-24.03,14.54-46.78,25.48-73.4,31.62c-31.4,7.45-70,5.25-82.91,7.22
			c-1.33,0.18-2.58-0.17-3.77-0.95c-1.01-0.52-6.71-38.82-12.42-87.17c-0.25-1.94-0.52-3.91-0.63-5.88l-0.08-0.65
			c-2.22-18.9-4.16-38.75-5.85-58.65c-1.38-15.48-2.51-30.8-3.29-45.18c-0.99-17.99-1.4-34.53-0.99-48.13
			c0.18-6.22,0.54-11.8,1.1-16.65c3.4-28.24,16.87-48.42,29.56-63.44l10.52-11.97c12.2,0.77,24.66-1.53,36.41-9.29
			c12.85-8.46,26.72-17.56,29.34-16.04c19.7,10.78,35.73,38.7,47.19,75.58c6.57,21.23,11.61,45.32,14.83,70.83
			c1.04,7.92,1.92,16.04,2.59,24.12c0.13,1.5,0.24,2.99,0.36,4.47c1.54,22.11,4.07,42.83,6.87,61.33
			c3.77,24.96,8.05,45.86,11.08,60.58c1.52,7.49,2.68,13.29,3.37,17.44C2109.25,1251.98,2102,1257.17,2098.77,1259.18z"/>
		<path class="st14" d="M2008.73,899.01c0,0-14.64,27.98-43.4,36.3c-1.7-11.78-1.83-18.47-1.83-18.47l22.82-18.69L2008.73,899.01z"
			/>
		<path class="st9" d="M1952.92,916.25c0,0,57.51,8.24,62.19-27.11c4.68-35.35,15.26-58.09-21.26-64.84
			c-36.52-6.76-45.46,5.82-49.93,17.24C1939.43,852.96,1938.08,913.19,1952.92,916.25z"/>
		<path class="st15" d="M2034.56,819.26c0.51-0.61,1.7-1.11,4.37-1.31c0,0-2.16-1.29-5.02-1.31c-0.63-3.7-2.74-10.24-9.16-11.71
			c0,0,3.47,1.76,4,5.7c-7.55-7.46-23.53-12.68-67.39-8.34c-57.81,5.72-37.99,42.41-30.41,46.68c7.58,4.27,26.21-8.22,40.2-7.39
			c13.99,0.83,17.04,20.96,21.84,23.63s2.83-2.18,9.19-5.21c6.35-3.02,7.17,7.59,5.46,14.53c-1.71,6.94,7.27,15.88,7.27,15.88
			s0,0,8.71-9.76c8.71-9.76,16.29-50.53,12.08-59.1C2035.31,820.8,2034.94,820.04,2034.56,819.26z"/>
		<path class="st10" d="M2016.3,1054.55c0,0-48.49,36.89-99.89,44.98c-0.99-17.99-1.4-34.53-0.99-48.13L2016.3,1054.55z"/>
		<g>
			<path class="st9" d="M1718.52,1006.94c-0.76-0.82-10.65-33.88-27.75-31.46c-11.16,1.57-29.39,8.03-24.55,22.73
				c1.9,5.78,35.9,25.69,35.9,25.69L1718.52,1006.94z"/>
			<path class="st13" d="M2022.3,983.26c27.65,16.54,25.41,57.74-4.16,70.53c-0.61,0.26-1.22,0.52-1.83,0.76
				c-45.52,18.26-198.06,19.11-211.72,16.92c-13.66-2.19-104.63-44.6-104.63-44.6s6.27-22.95,19.23-26.56c0,0,97.32,24.66,104.24,23
				c6.92-1.66,151.56-70.12,176.19-54.09C2006.13,973.46,2014.1,978.36,2022.3,983.26z"/>
		</g>
	</g>
</g>
</svg>
