<?xml version="1.0" encoding="utf-8"?>
<!-- Generator: Adobe Illustrator 25.2.1, SVG Export Plug-In . SVG Version: 6.00 Build 0)  -->
<svg version="1.1" id="Layer_1" xmlns="http://www.w3.org/2000/svg" xmlns:xlink="http://www.w3.org/1999/xlink" x="0px" y="0px"
	 viewBox="0 0 640 480" style="enable-background:new 0 0 640 480;" xml:space="preserve">
<style type="text/css">
	.st0{fill:#088242;stroke:#603813;stroke-width:10;stroke-miterlimit:10;}
	.st1{fill:#FFFFFF;}
</style>
<path class="st0" d="M512.59,475.38H77.77c-6.97,0-12.63-5.65-12.63-12.63V27.93c0-6.97,5.65-12.63,12.63-12.63h434.82
	c6.97,0,12.63,5.65,12.63,12.63v434.82C525.22,469.73,519.57,475.38,512.59,475.38z"/>
<g>
	<path class="st1" d="M284.13,201.81c-7.37,24.21-26.82,39.2-58.35,44.97l-2.74-12.67c28.93-5.24,45.34-18.65,49.26-40.24
		c1.33-7.27,0.76-15.82-1.73-25.65l14.15-4.81l2.23,15.55c1.22,8.23,5.52,12.34,12.89,12.34h2.24c1.07,0,1.26,1.92,0.59,5.77
		l-0.34,1.92c-0.83,4.7-1.78,7.05-2.85,7.05h-1.36C290.38,206.06,285.72,204.64,284.13,201.81z"/>
	<path class="st1" d="M292.45,231.45l13.72-11.66l9.68,11.75l-13.72,11.66L292.45,231.45z M359.66,199
		c-0.83,4.7-1.78,7.05-2.85,7.05h-0.8c-10.58,0-17.21-3.77-19.89-11.3c-6.62,7.54-16.53,11.3-29.73,11.3h-8.34
		c-3.05,0-4.15-2.35-3.32-7.05l0.27-1.52c0.73-4.11,2.61-6.17,5.66-6.17h7.94c12.34,0,19.81-3.53,22.39-10.58
		c0.65-1.87,1.2-4.09,1.65-6.65c0.47-2.67,0.84-5.21,1.1-7.61l0.74-6.49l13.43-1.6l-1.98,18.52c-1,9.62,3.28,14.43,12.85,14.43h0.64
		c1.07,0,1.2,2.3,0.39,6.89L359.66,199z M318.52,231.45l13.72-11.66l9.68,11.75L328.2,243.2L318.52,231.45z"/>
	<path class="st1" d="M361.7,206.06h-6.09c-3.1,0-4.23-2.35-3.4-7.05l0.27-1.52c0.73-4.11,2.64-6.17,5.74-6.17h6.09
		c5.88,0,10.49-0.85,13.84-2.56c5.01-2.67,8.27-8.26,9.77-16.75c1.12-6.36,1.38-13.44,0.78-21.24l13.65-3.29
		c1.15,8.34,1.03,16.43-0.35,24.29c-2.31,13.09-7.7,22.47-16.18,28.14C379.62,204,371.58,206.06,361.7,206.06z M357.48,231.45
		l13.72-11.66l9.68,11.75l-13.72,11.66L357.48,231.45z"/>
	<path class="st1" d="M415.02,189.15c6.49,1.39,12.27,2.08,17.35,2.08c19.77,0,30.51-4.84,32.22-14.51
		c1.78-10.1-7.19-22.12-26.91-36.07l10.16-12.18c23.67,15.76,34.08,31.77,31.21,48.02c-3.45,19.56-19.53,29.37-48.23,29.42
		c-6.79,0-12.93-0.64-18.42-1.92L415.02,189.15z"/>
</g>
<g>
	<path class="st1" d="M104.97,287.67c20.91,17.59,30.2,33.04,27.85,46.36c-1.71,9.72-7.28,17.2-16.69,22.45
		c-4.52,2.57-10.15,3.88-16.89,3.93c-6.22,0-11.35-1.11-15.38-3.32c-7.88-4.32-10.84-12.01-8.89-23.06
		c1.88-10.64,9.68-21.67,23.42-33.09l-2.94-3.01L104.97,287.67z M106.86,311.04c-11.28,8.54-17.49,16.07-18.64,22.6
		c-1.51,8.59,2.95,12.88,13.39,12.88c10.59,0,16.62-4.32,18.1-12.96C120.78,327.5,116.49,319.99,106.86,311.04z"/>
	<path class="st1" d="M165.93,252.11h13.34l-19.14,108.53h-13.34L165.93,252.11z"/>
	<path class="st1" d="M225.02,356.63c-7.09,23.3-25.81,37.72-56.15,43.27l-2.63-12.19c27.83-5.04,43.64-17.95,47.4-38.72
		c1.28-6.99,0.73-15.22-1.66-24.68l13.62-4.63l2.14,14.96c1.17,7.92,5.31,11.88,12.41,11.88h2.16c1.03,0,1.22,1.85,0.56,5.55
		l-0.33,1.85c-0.8,4.53-1.71,6.79-2.74,6.79h-1.31C231.04,360.72,226.55,359.36,225.02,356.63z"/>
	<path class="st1" d="M288.41,362.42c-9.46,0-17.71-4.24-24.75-12.73c-7.62,7.36-15.47,11.03-23.54,11.03h-1.62
		c-2.93,0-4-2.26-3.2-6.79l0.26-1.47c0.7-3.96,2.51-5.94,5.44-5.94h1.23c4.73,0,9.3-2.42,13.7-7.25c2.3-2.57,4.85-6.09,7.65-10.57
		c9.3-14.86,19.44-22.32,30.4-22.37c8.33,0,14.37,3.06,18.13,9.18c2.66,4.42,4.11,9.93,4.34,16.51c0.35,9.67,3.56,14.5,9.63,14.5
		h1.16c1.03,0,1.19,1.98,0.49,5.94l-0.26,1.47c-0.8,4.53-1.71,6.79-2.74,6.79h-1.23c-5.97,0-10.29-2.88-12.98-8.64
		C304.88,358.97,297.51,362.42,288.41,362.42z M290,348.61c7.45,0.05,11.73-3.52,12.84-10.72c0.47-2.98,0.38-5.81-0.28-8.49
		c-1.49-5.55-5.16-8.36-11.01-8.41c-6.92-0.1-13.24,5.22-18.94,15.97C277.89,344.67,283.68,348.56,290,348.61z"/>
	<path class="st1" d="M331.44,360.72h-7.87c-2.98,0-4.08-2.26-3.28-6.79l0.26-1.47c0.7-3.96,2.54-5.94,5.52-5.94h20.44h3.86
		c-1.9-1.49-3.38-3.01-4.44-4.55c-3.15-4.58-4.21-9.67-3.17-15.27c1.11-6.27,4.29-11.93,9.55-16.97c6.44-6.22,13.83-9.33,22.16-9.33
		c7.66,0,13.61,2.42,17.85,7.25c3.66,4.06,4.95,9.28,3.87,15.66c-1.64,9.31-6.96,16.46-15.97,21.44c8.07,1.18,13.31,1.77,15.73,1.77
		c3.5,0,6.26-0.36,8.29-1.08c5.99-2.21,9.54-6.27,10.63-12.19c2.29-12.39-10.05-25.69-37.01-39.88l8.79-11.8
		c31.46,16.71,45.46,33.97,42.02,51.76c-1.45,7.61-4.87,13.91-10.27,18.9c-6.03,5.61-14.34,8.41-24.93,8.41
		c-8.03,0.05-17.56-1.77-28.58-5.48C351.75,358.87,340.6,360.72,331.44,360.72z M376.53,335.11c4.09-3.39,6.58-7.12,7.45-11.18
		c0.47-2.67,0.11-4.83-1.09-6.48c-2.24-3.03-5.55-4.55-9.92-4.55c-5.25,0-9.6,2.24-13.06,6.71c-1.6,2.06-2.68,4.53-3.23,7.41
		c-0.57,3.24,0.46,6.28,3.1,9.1c1.21,1.29,2.6,2.31,4.16,3.08c1.12,0.62,2.33,1.08,3.61,1.39c0.83-0.31,1.67-0.69,2.52-1.16
		C372.46,338.09,374.62,336.65,376.53,335.11z"/>
</g>
</svg>
