<?xml version="1.0" encoding="utf-8"?>
<!-- Generator: Adobe Illustrator 25.2.1, SVG Export Plug-In . SVG Version: 6.00 Build 0)  -->
<svg version="1.1" id="Layer_1" xmlns="http://www.w3.org/2000/svg" xmlns:xlink="http://www.w3.org/1999/xlink" x="0px" y="0px"
	 viewBox="0 0 1099.34 643.43" style="enable-background:new 0 0 1099.34 643.43;" xml:space="preserve">
<style type="text/css">
	.st0{fill:url(#SVGID_1_);}
	.st1{fill:#FFFFFF;}
	.st2{fill:url(#SVGID_2_);}
	.st3{fill:url(#SVGID_3_);}
	.st4{fill:none;stroke:#FFFFFF;stroke-width:2;stroke-linecap:round;stroke-linejoin:round;stroke-miterlimit:10;}
	.st5{fill:url(#SVGID_4_);}
	.st6{opacity:0.5;fill:#C2E3F9;}
	.st7{fill:url(#SVGID_5_);}
	.st8{fill:url(#SVGID_6_);}
	.st9{fill:#EDEDED;}
	.st10{fill:#24303D;}
	.st11{fill:#A8D1F1;}
	.st12{fill:url(#SVGID_7_);}
	.st13{fill:url(#SVGID_8_);}
	.st14{fill:url(#SVGID_9_);}
	.st15{fill:url(#SVGID_10_);}
	.st16{fill:url(#SVGID_11_);}
	.st17{fill:#312D62;}
	.st18{fill:url(#SVGID_12_);}
	.st19{fill:#2B2523;}
	.st20{fill:url(#SVGID_13_);}
	.st21{fill:url(#SVGID_14_);}
	.st22{fill:url(#SVGID_15_);}
	.st23{fill:url(#SVGID_16_);}
	.st24{fill:url(#SVGID_17_);}
	.st25{fill:#EEEDEF;}
	.st26{fill:url(#SVGID_18_);}
	.st27{fill:#13110C;}
	.st28{fill:url(#SVGID_19_);}
	.st29{fill:#978FC5;}
	.st30{fill:url(#SVGID_20_);}
	.st31{fill:url(#SVGID_21_);}
	.st32{fill:url(#SVGID_22_);}
	.st33{fill:url(#SVGID_23_);}
	.st34{fill:url(#SVGID_24_);}
	.st35{fill:url(#SVGID_25_);}
	.st36{fill:#EDECED;}
	.st37{fill:url(#SVGID_26_);}
	.st38{fill:#2A599E;}
	.st39{fill:url(#SVGID_27_);}
	.st40{fill:url(#SVGID_28_);}
	.st41{fill:url(#SVGID_29_);}
	.st42{fill:#FFDE8F;}
	.st43{fill:url(#SVGID_30_);}
	.st44{fill:#FDD503;}
	.st45{fill:url(#SVGID_31_);}
	.st46{fill:url(#SVGID_32_);}
	.st47{fill:url(#SVGID_33_);}
	.st48{fill:url(#SVGID_34_);}
	.st49{fill:url(#SVGID_35_);}
	.st50{fill:url(#SVGID_36_);}
	.st51{fill:url(#SVGID_37_);}
	.st52{fill:url(#SVGID_38_);}
	.st53{fill:url(#SVGID_39_);}
	.st54{fill:url(#SVGID_40_);}
	.st55{fill:url(#SVGID_41_);}
	.st56{fill:url(#SVGID_42_);}
	.st57{fill:url(#SVGID_43_);}
	.st58{fill:url(#SVGID_44_);}
	.st59{fill:url(#SVGID_45_);}
	.st60{fill:#DADADA;}
	.st61{fill:url(#SVGID_46_);}
	.st62{fill:url(#SVGID_47_);}
	.st63{fill:url(#SVGID_48_);}
	.st64{fill:url(#SVGID_49_);}
	.st65{fill:#E6EEFA;}
	.st66{fill:url(#SVGID_50_);}
	.st67{fill:url(#SVGID_51_);}
	.st68{fill:#B5CCEC;}
</style>
<linearGradient id="SVGID_1_" gradientUnits="userSpaceOnUse" x1="583.8036" y1="482.0001" x2="583.8036" y2="-23.1574">
	<stop  offset="0" style="stop-color:#FFFFFF"/>
	<stop  offset="1" style="stop-color:#A8D1F1"/>
</linearGradient>
<path class="st0" d="M1077.77,424c-0.71-6.75-2.14-13.54-4.36-20.33c-17.07-61.16-81.24-84.81-107.91-137.56
	c-18.8-31.01-0.62-67.48-6-102.63c-0.87-6.78-2.27-13.4-4.32-19.78c-4.13-12.77-10.95-24.6-21.91-34.82
	c-6.2-5.93-13.16-11.43-20.74-16.39c-53.22-34.71-128.52,33.4-199.51,37.17C642.03,133.42,573.91,50,509,50
	c-57.34,0-94.89,50.82-150.18,55.49c-55.28,4.66-182.92-49.45-235.59,7.04c-6.57,6.34-12.36,13.27-17.23,20.72
	c-7.31,11.17-12.52,23.52-15.02,36.86c-1.26,6.67-1.83,13.59-1.66,20.73c-1.19,63.49,53.5,104.55,63.91,162.73
	c9.12,35.1-18.77,64.82-23.7,100.04c-1.11,6.74-1.67,13.49-1.54,20.19c0.29,13.42,3.43,26.71,10.99,39.64
	c4.23,7.46,9.32,14.72,15.16,21.65c41.02,48.52,120.1,80.64,219.98,47.38c3.58-1.19,7.08-2.37,10.51-3.52
	c33.48,24.92,73.93,38.52,117,31.82c9.79-1.57,19.4-4.23,28.67-8.02c9.27-3.78,18.19-8.69,26.59-14.74c0,0,0.01,0,0.01-0.01H864
	v-17.45c5.01,1.36,10.06,2.56,15.17,3.54c9.12,1.54,18.21,2.6,27.22,3.1c63.16,3.57,122.75-19.56,157-88.79
	c4.47-7.96,8.04-16.26,10.56-24.79C1077.75,450.82,1079.2,437.5,1077.77,424z"/>
<path class="st1" d="M949.2,237.15c0.71-3.04,1.37-5.92,1.99-8.63c0.62-2.71,1.38-5.21,1.98-7.55c0.61-2.33,1.16-4.48,1.77-6.39
	c0.75-2.53,1.38-4.64,1.93-6.42c5.73-2.93,47.53-26.39,36.57-81.79c0,0-58.46,19.56-37.42,81.5c-0.82,1.66-1.77,3.67-2.84,6.05
	c-1.68,3.67-3.5,8.23-5.54,13.49c-0.96,2.65-1.97,5.47-3.03,8.44c-1.13,2.97-1.65,6.26-2.56,9.61c-0.62,2.63-1.32,5.36-1.98,8.16
	c-1.04-2.87-2.41-6.66-3.79-10.47c-0.69-1.9-1.38-3.83-2.05-5.61c-0.26-0.66-0.51-1.29-0.76-1.91c27.67-63.33-16.9-87.45-16.9-87.45
	c-20.49,69.49,5.62,84.25,14.2,87.16c0.38,0.98,0.8,2,1.24,3.1c0.65,1.78,1.35,3.69,2.02,5.57c1.38,3.81,2.76,7.6,3.78,10.46
	c0.17,0.35,0.17,0.72,0.4,1.01c0.2,0.3,0.4,0.57,0.58,0.84c0.2,0.27,0.34,0.47,0.5,0.7c-0.66,3.34-1.33,6.75-2.04,10.27
	c-0.38,1.95-0.81,3.91-1.14,5.92c-0.3,2.01-0.6,4.05-0.91,6.1c-0.6,4.12-1.22,8.34-1.86,12.61c-0.49,4.35-0.99,8.61-1.37,13.08
	c-0.17,2.11-0.33,4.25-0.5,6.38c-0.11-0.61-0.22-1.2-0.39-1.81c-0.26-1.11-0.54-2.23-0.81-3.36c-0.54-2.24-1.08-4.5-1.6-6.6
	c-0.63-2.09-1.21-4.03-1.71-5.7c-0.16-0.4-0.17-0.83-0.37-1.18c-0.2-0.36-0.41-0.68-0.58-1c-0.17-0.29-0.32-0.49-0.48-0.74
	c1.8-10.62,5.8-53.53-40.9-78.16c0,0-21.55,57.66,39.68,80.31c0.01,0.12,0.02,0.23,0.01,0.35c0.03,0.4,0.26,0.76,0.35,1.17
	c0.5,1.64,1.06,3.55,1.69,5.59c0.5,2.07,1.05,4.29,1.57,6.52c0.27,1.1,0.54,2.21,0.81,3.31c0.3,1.08,0.45,2.18,0.62,3.22
	c0.34,2.12,0.64,4.1,0.91,5.78c0.1,0.41,0.03,0.84,0.21,1.21c0.09,0.22,0.18,0.43,0.26,0.64c-0.58,8.2-1.16,16.46-2.23,24.64
	c-0.48,4.52-1.33,8.97-2.08,13.42c-0.4,2.22-0.97,4.4-1.44,6.58c-0.52,2.19-0.95,4.39-1.62,6.51c-0.14,0.49-0.28,0.95-0.42,1.44
	c-0.06-0.33-0.1-0.67-0.18-1.02c-0.25-1.48-0.6-3.03-1.04-4.61c-0.35-1.61-0.98-3.2-1.48-4.86c-0.63-1.6-1.26-3.25-2.02-4.83
	c-0.78-1.42-1.46-2.91-2.36-4.25c0.32,0,0.62,0.02,0.95,0.02c0,0-1.01-53.5-56.29-60.9c0,0-5.03,59.26,52.46,60.84
	c0.22,0.33,0.43,0.65,0.64,0.98c0.97,1.34,1.62,2.9,2.43,4.36c0.73,1.51,1.33,3.08,1.93,4.62c0.49,1.58,1.09,3.1,1.42,4.65
	c0.42,1.53,0.76,3.02,1,4.45c0.3,1.42,0.45,2.78,0.62,4.04c0.12,0.63,0.05,1.24,0.2,1.81c0.02,0.09,0.04,0.16,0.06,0.25
	c-0.59,1.91-1.19,3.81-1.92,5.66c-0.75,2.05-1.46,4.09-2.2,6.12c-0.82,2-1.71,3.96-2.54,5.9c-0.83,1.96-1.67,3.89-2.5,5.81
	c-0.93,1.88-1.86,3.73-2.78,5.56c-1.86,3.66-3.57,7.28-5.59,10.63c-1.96,3.38-3.84,6.68-5.67,9.88c-0.47,0.73-0.93,1.45-1.4,2.17
	c0.06-0.83,0.09-1.67,0.08-2.51c0-3.74-0.71-7.39-1.51-10.06c-0.12-0.31-0.1-0.67-0.29-0.94c-0.19-0.29-0.37-0.54-0.54-0.77
	c-0.23-0.32-0.43-0.55-0.64-0.8c1.22-5.52,8.61-46.42-33.51-64.54c0,0-18.95,50.71,32.36,64.88c0.02,0.33,0.03,0.67,0.04,1.07
	c0.02,0.28,0.02,0.58,0.02,0.9c0.02,0.3,0.22,0.57,0.27,0.89c0.75,2.48,1.42,5.93,1.41,9.39c0.03,1.73-0.12,3.45-0.39,5.04
	c-0.09,0.8-0.3,1.55-0.47,2.27c-0.03,0.11-0.05,0.2-0.09,0.3c-0.36,0.57-0.71,1.13-1.07,1.69c-0.92,1.43-1.83,2.85-2.72,4.22
	c-0.91,1.35-1.86,2.63-2.65,3.98c-1.63,2.67-3.17,5.2-4.62,7.58c-2.84,4.81-5.56,8.84-7.79,12.17c-4.42,6.71-6.89,10.6-6.89,10.6
	s3.05-3.43,8.32-9.52c2.63-3.06,5.86-6.74,9.3-11.18c1.21-1.51,2.49-3.12,3.81-4.76c0.19-0.03,0.35-0.05,0.56-0.08
	c0.29-0.05,0.61-0.1,0.95-0.15c0.34-0.03,0.6-0.3,0.94-0.41c0.65-0.27,1.31-0.68,2.1-0.88c0.78-0.23,1.61-0.48,2.46-0.74
	c0.86-0.25,1.72-0.56,2.63-0.78c0.91-0.13,1.85-0.3,2.78-0.46c0.93-0.14,1.86-0.38,2.79-0.37c0.93-0.06,1.86-0.11,2.72-0.15
	c0.9-0.1,1.75,0.03,2.56,0.04c0.81,0.06,1.58,0.03,2.27,0.14c0.36,0.02,0.69,0.18,1.01,0.14c0.17-0.03,0.32-0.05,0.49-0.07
	c8.22,5.19,47.15,26.43,88.26-8.23c0,0-44.87-41.19-88.67,5.88c-0.26-0.04-0.54-0.03-0.83-0.1c-0.74-0.11-1.55-0.09-2.42-0.16
	c-0.87-0.01-1.78-0.13-2.71-0.04c-0.94,0.05-1.91,0.1-2.9,0.17c-0.99,0-1.96,0.24-2.95,0.38c-0.99,0.16-1.97,0.34-2.95,0.51
	c-0.96,0.22-1.87,0.54-2.78,0.8c-0.89,0.27-1.76,0.54-2.59,0.79c-0.4,0.1-0.77,0.25-1.11,0.42c1.62-2.19,3.03-4.68,4.65-7.14
	c1.86-2.92,3.79-5.96,5.81-9.1c1.85-3.26,3.77-6.6,5.74-10.04c2.05-3.4,3.81-7.1,5.7-10.83c0.92-1.87,1.87-3.76,2.82-5.66
	c0.44-1,0.88-2.03,1.32-3.05c0.14-0.01,0.26-0.02,0.4-0.02c0.25-0.03,0.41-0.25,0.65-0.32c1.76-0.92,4.1-2.14,6.43-3.36
	c2.34-1.23,4.68-2.45,6.43-3.38c0.14-0.09,0.31-0.14,0.44-0.21c11.93,1.92,53.27,4.86,77.58-40.46c0,0-57.71-22.06-80.72,39.39
	c-1.47,0.77-3.16,1.66-4.83,2.53c-1.74,0.91-3.47,1.82-4.98,2.6c0.82-1.88,1.66-3.76,2.45-5.69c0.75-2.08,1.5-4.18,2.26-6.28
	c1.64-4.17,2.79-8.56,4.1-12.96c0.68-2.18,1.12-4.43,1.66-6.68c0.48-2.25,1.08-4.49,1.48-6.77c0.57-3.39,1.16-6.8,1.64-10.22
	c0.16-0.34,0.33-0.67,0.46-1.04c0.88-1.96,1.72-4.32,2.98-6.75c1.21-2.43,2.45-5.04,3.85-7.59c2.68-5.13,5.6-10.15,7.8-13.92
	c0.25-0.48,0.61-0.87,0.79-1.35c0.1-0.26,0.19-0.51,0.28-0.75c6.59-1.05,55.47-10.7,53.14-67.6c0,0-69,17.52-54.41,65.93
	c-0.04,0.05-0.07,0.08-0.11,0.12c-0.31,0.34-0.62,0.7-0.96,1.08c-0.32,0.39-0.49,0.9-0.79,1.36c-2.23,3.78-5.15,8.82-7.86,14.01
	c-1.41,2.55-2.67,5.22-3.89,7.68c-0.08,0.18-0.16,0.36-0.24,0.54c0.83-7.6,1.34-15.16,1.88-22.6c0.3-4.5,0.67-8.94,1.03-13.3
	c0.36-4.36,0.89-8.79,1.35-12.97c0.63-4.21,1.24-8.38,1.85-12.45c0.3-2.03,0.6-4.04,0.89-6.03c0.33-1.98,0.77-3.92,1.13-5.83
	c0.69-3.45,1.36-6.78,2.01-10.04c0.42-0.85,0.82-1.71,1.38-2.54c0.63-1.06,1.26-2.14,2.02-3.15c0.71-1.05,1.47-2.04,2.28-3
	c0.75-0.97,1.62-1.83,2.4-2.71c1.66-1.68,3.28-3.18,4.77-4.34c0.34-0.32,0.76-0.51,1.05-0.83c0.29-0.33,0.58-0.65,0.83-0.94
	c0.01-0.02,0.04-0.03,0.05-0.06c9.97,0.03,42.88-2.86,46.47-41.43c0,0-44.84-3.27-49.27,40.86c-0.2,0.18-0.41,0.37-0.63,0.52
	c-1.56,1.23-3.28,2.79-5,4.56c-0.83,0.93-1.73,1.82-2.52,2.85c-0.74,0.89-1.43,1.81-2.1,2.76c0.34-1.37,0.69-2.72,1-4.05
	C947.49,243.3,948.46,240.17,949.2,237.15z"/>
<linearGradient id="SVGID_2_" gradientUnits="userSpaceOnUse" x1="194.2522" y1="343.4638" x2="524.1321" y2="343.4638">
	<stop  offset="0" style="stop-color:#FFFFFF"/>
	<stop  offset="1" style="stop-color:#A8D1F1"/>
</linearGradient>
<path class="st2" d="M430.2,368.41v-49.88h-39.91c-3.31-16.67-9.87-32.18-18.99-45.82l28.23-28.23l-35.27-35.27l-28.23,28.23
	c-13.65-9.12-29.15-15.69-45.83-18.99v-39.91h-49.88v39.91c-16.67,3.31-32.18,9.87-45.83,18.99l-28.23-28.23L131,244.47l28.23,28.23
	c-9.12,13.64-15.68,29.15-18.98,45.82h-39.92v49.88h39.92c3.3,16.67,9.86,32.18,18.99,45.82L131,442.46l35.27,35.28l28.23-28.24
	c13.65,9.12,29.15,15.68,45.83,18.99v39.91h49.88v-39.91c16.68-3.31,32.18-9.87,45.83-18.99l28.23,28.24l35.27-35.28l-28.23-28.23
	c9.12-13.64,15.68-29.15,18.99-45.82H430.2z M265.26,414.15c-39.04,0-70.69-31.65-70.69-70.69c0-39.03,31.65-70.69,70.69-70.69
	c39.04,0,70.69,31.65,70.69,70.69C335.96,382.5,304.3,414.15,265.26,414.15z"/>
<g>
	<g>
		
			<linearGradient id="SVGID_3_" gradientUnits="userSpaceOnUse" x1="-162.3087" y1="84.449" x2="-24.3074" y2="84.449" gradientTransform="matrix(0.2393 0.9709 -0.9709 0.2393 1060.246 523.3744)">
			<stop  offset="0" style="stop-color:#94BEE6"/>
			<stop  offset="1" style="stop-color:#363082"/>
		</linearGradient>
		<path class="st3" d="M926.92,431.68c26.93-44.55,77.76-59.43,79.4-62.15c0.94-1.55,8.81,54.64-18.13,99.19
			c-26.93,44.55-62.48,72.38-79.4,62.15C891.87,520.64,899.99,476.23,926.92,431.68z"/>
		<line class="st4" x1="993.73" y1="390.39" x2="908.79" y2="530.87"/>
		<line class="st4" x1="992.8" y1="428" x2="961.31" y2="444.31"/>
		<line class="st4" x1="974.65" y1="447.27" x2="955.03" y2="454.41"/>
		<line class="st4" x1="940.48" y1="450.54" x2="941.95" y2="475.18"/>
		<path class="st4" d="M929.68,462.74c0.61,2.48,4.49,23.56,4.49,23.56l0.54,2.17"/>
	</g>
	<g>
		
			<linearGradient id="SVGID_4_" gradientUnits="userSpaceOnUse" x1="-1230.8116" y1="544.4701" x2="-1132.0366" y2="544.4701" gradientTransform="matrix(-0.8696 -0.4938 -0.4938 0.8696 196.5933 -542.0751)">
			<stop  offset="0" style="stop-color:#EB5758"/>
			<stop  offset="1" style="stop-color:#F18756"/>
		</linearGradient>
		<path class="st5" d="M964.15,538.91c35.92-9.9,56.05-42.03,58.24-42.63c1.25-0.34-35.93-16.68-71.86-6.78
			c-35.92,9.9-62,28.99-58.24,42.63C896.06,545.78,928.23,548.81,964.15,538.91z"/>
		<line class="st4" x1="1005.57" y1="500.9" x2="892.29" y2="532.13"/>
		<line class="st4" x1="979.48" y1="494.23" x2="962.12" y2="512.76"/>
		<line class="st4" x1="962.67" y1="503" x2="953.95" y2="515.12"/>
		<line class="st4" x1="953.79" y1="525.9" x2="937.1" y2="520.1"/>
		<path class="st4" d="M943.28,530.97c-1.59-0.9-15.36-7.67-15.36-7.67l-1.39-0.79"/>
	</g>
</g>
<path class="st6" d="M982.33,535.45H733.34H461.72H212.73c-6.85,0-12.4,5.55-12.4,12.4c0,6.85,5.55,12.4,12.4,12.4h248.99h271.62
	h248.99c6.85,0,12.4-5.55,12.4-12.4C994.72,541,989.18,535.45,982.33,535.45z"/>
<g>
	<linearGradient id="SVGID_5_" gradientUnits="userSpaceOnUse" x1="375.2961" y1="487.7453" x2="485.3777" y2="487.7453">
		<stop  offset="0" style="stop-color:#A8D1F1"/>
		<stop  offset="1" style="stop-color:#7D2580"/>
	</linearGradient>
	<path class="st7" d="M380.31,513.57c-6.68,6.68-6.68,17.52,0,24.21l0,0c6.69,6.68,17.52,6.68,24.21,0l75.85-75.85
		c6.68-6.68,6.68-17.52,0-24.21l0,0c-6.68-6.68-17.52-6.68-24.21,0L380.31,513.57z"/>
	<linearGradient id="SVGID_6_" gradientUnits="userSpaceOnUse" x1="528.9954" y1="488.0932" x2="638.7311" y2="488.0932">
		<stop  offset="0" style="stop-color:#A8D1F1"/>
		<stop  offset="1" style="stop-color:#7D2580"/>
	</linearGradient>
	<path class="st8" d="M633.77,514.14c6.65,6.71,6.6,17.55-0.11,24.21l0,0c-6.71,6.65-17.55,6.6-24.21-0.11l-75.5-76.19
		c-6.66-6.71-6.61-17.55,0.11-24.21l0,0c6.71-6.65,17.55-6.61,24.21,0.11L633.77,514.14z"/>
	
		<ellipse transform="matrix(0.9996 -0.0293 0.0293 0.9996 -10.7333 15.1489)" class="st9" cx="510.78" cy="373.28" rx="150.42" ry="150.42"/>
	
		<ellipse transform="matrix(0.7071 -0.7071 0.7071 0.7071 -123.2434 476.8565)" class="st1" cx="514" cy="387.2" rx="136.5" ry="136.51"/>
	<path class="st10" d="M452.77,446.27c-1.08,1.74-0.55,4.03,1.19,5.11l0,0c1.74,1.08,4.03,0.55,5.11-1.19l56.28-90.64
		c1.08-1.74,0.55-4.03-1.2-5.11l0,0c-1.74-1.08-4.03-0.55-5.11,1.19L452.77,446.27z"/>
	<path class="st10" d="M511.79,248.82c0-2.05-1.66-3.71-3.71-3.71l0,0c-2.05,0-3.71,1.66-3.71,3.71v106.69
		c0,2.05,1.66,3.71,3.71,3.71l0,0c2.05,0,3.71-1.66,3.71-3.71V248.82z"/>
	<g>
		<rect x="499.66" y="217.58" class="st11" width="10.27" height="16.26"/>
		<rect x="499.66" y="491.45" class="st11" width="10.27" height="16.26"/>
	</g>
	<g>
		<rect x="633.6" y="357.51" class="st11" width="16.26" height="10.27"/>
		<rect x="359.73" y="357.51" class="st11" width="16.26" height="10.27"/>
	</g>
	<g>
		<path class="st10" d="M423.58,176.69c4.85,8.93,1.55,20.1-7.38,24.95l0,0c-8.93,4.85-20.1,1.55-24.96-7.38l-17.99-33.08
			c-4.85-8.93-1.55-20.1,7.38-24.95l0,0c8.93-4.86,20.1-1.55,24.96,7.38L423.58,176.69z"/>
		<linearGradient id="SVGID_7_" gradientUnits="userSpaceOnUse" x1="355.0116" y1="199.6517" x2="482.79" y2="199.6517">
			<stop  offset="0" style="stop-color:#A8D1F1"/>
			<stop  offset="1" style="stop-color:#7D2580"/>
		</linearGradient>
		<path class="st12" d="M443.57,153.15c-36.54-10.8-74.92,10.06-85.71,46.6c-5.03,17.01-3.19,34.41,3.89,49.25l121.04-65.81
			C474.18,169.18,460.58,158.18,443.57,153.15z"/>
	</g>
	<g>
		<path class="st10" d="M592.24,176.69c-4.85,8.93-1.55,20.1,7.38,24.95l0,0c8.93,4.85,20.1,1.55,24.95-7.38l17.99-33.08
			c4.85-8.93,1.55-20.1-7.38-24.95l0,0c-8.93-4.86-20.1-1.55-24.96,7.38L592.24,176.69z"/>
		<linearGradient id="SVGID_8_" gradientUnits="userSpaceOnUse" x1="533.0273" y1="199.6517" x2="660.8046" y2="199.6517">
			<stop  offset="0" style="stop-color:#A8D1F1"/>
			<stop  offset="1" style="stop-color:#7D2580"/>
		</linearGradient>
		<path class="st13" d="M572.25,153.15c36.54-10.8,74.92,10.06,85.71,46.6c5.03,17.01,3.19,34.41-3.89,49.25l-121.04-65.81
			C541.63,169.18,555.24,158.18,572.25,153.15z"/>
	</g>
	<g>
		<linearGradient id="SVGID_9_" gradientUnits="userSpaceOnUse" x1="488.6396" y1="365.3235" x2="526.7256" y2="365.3235">
			<stop  offset="0" style="stop-color:#A8D1F1"/>
			<stop  offset="1" style="stop-color:#7D2580"/>
		</linearGradient>
		<path class="st14" d="M526.73,365.32c0,10.52-8.53,19.04-19.04,19.04s-19.04-8.53-19.04-19.04c0-10.52,8.53-19.04,19.04-19.04
			S526.73,354.81,526.73,365.32z"/>
		<path class="st1" d="M515.17,365.32c0,4.14-3.35,7.49-7.49,7.49c-4.14,0-7.49-3.35-7.49-7.49c0-4.13,3.35-7.49,7.49-7.49
			C511.82,357.83,515.17,361.19,515.17,365.32z"/>
	</g>
	<linearGradient id="SVGID_10_" gradientUnits="userSpaceOnUse" x1="344.678" y1="365.3238" x2="670.7537" y2="365.3238">
		<stop  offset="0" style="stop-color:#E94F1E"/>
		<stop  offset="0.9624" style="stop-color:#F39405"/>
	</linearGradient>
	<path class="st15" d="M508.46,202.29c-90.04-0.41-163.37,72.25-163.78,162.29c-0.41,90.04,72.25,163.37,162.29,163.78
		c90.04,0.41,163.37-72.25,163.78-162.29C671.16,276.02,598.5,202.7,508.46,202.29z M507.68,504.4
		c-76.81,0-139.07-62.27-139.07-139.07c0-76.81,62.26-139.07,139.07-139.07c76.81,0,139.07,62.27,139.07,139.07
		C646.76,442.13,584.49,504.4,507.68,504.4z"/>
</g>
<g>
	<g>
		<linearGradient id="SVGID_11_" gradientUnits="userSpaceOnUse" x1="692.9668" y1="403.3418" x2="915.6338" y2="403.3418">
			<stop  offset="0" style="stop-color:#EB5758"/>
			<stop  offset="1" style="stop-color:#F18756"/>
		</linearGradient>
		<path class="st16" d="M915.63,391.68c0-2.76-2.05-5-4.58-5H697.54c-2.53,0-4.58,2.24-4.58,5v28.33h222.67V391.68z"/>
		<path class="st17" d="M692.97,420.01v117.67c0,2.76,2.05,5,4.58,5h213.52c2.53,0,4.58-2.24,4.58-5V420.01H692.97z"/>
	</g>
	<g>
		<path class="st17" d="M754.3,399.68c0,5.89-4.78,10.67-10.67,10.67l0,0c-5.89,0-10.67-4.78-10.67-10.67v-26
			c0-5.89,4.78-10.67,10.67-10.67l0,0c5.89,0,10.67,4.78,10.67,10.67V399.68z"/>
		<path class="st17" d="M866.3,399.01c0,5.89-4.78,10.67-10.67,10.67l0,0c-5.89,0-10.67-4.78-10.67-10.67v-26
			c0-5.89,4.78-10.67,10.67-10.67l0,0c5.89,0,10.67,4.78,10.67,10.67V399.01z"/>
	</g>
	<g>
		<path class="st1" d="M745.47,453.68c0,2.76-2.24,5-5,5H715.8c-2.76,0-5-2.24-5-5v-14.67c0-2.76,2.24-5,5-5h24.67
			c2.76,0,5,2.24,5,5V453.68z"/>
		<path class="st1" d="M795.47,439.01c0-2.76-2.24-5-5-5H765.8c-2.76,0-5,2.24-5,5v14.67c0,2.76,2.24,5,5,5h24.67c2.76,0,5-2.24,5-5
			V439.01z"/>
		<path class="st1" d="M845.47,439.01c0-2.76-2.24-5-5-5H815.8c-2.76,0-5,2.24-5,5v14.67c0,2.76,2.24,5,5,5h24.67c2.76,0,5-2.24,5-5
			V439.01z"/>
		<path class="st1" d="M895.47,439.01c0-2.76-2.24-5-5-5H865.8c-2.76,0-5,2.24-5,5v14.67c0,2.76,2.24,5,5,5h24.67c2.76,0,5-2.24,5-5
			V439.01z"/>
	</g>
	<g>
		<path class="st1" d="M745.47,473.01c0-2.76-2.24-5-5-5H715.8c-2.76,0-5,2.24-5,5v14.67c0,2.76,2.24,5,5,5h24.67c2.76,0,5-2.24,5-5
			V473.01z"/>
		<path class="st1" d="M795.47,473.01c0-2.76-2.24-5-5-5H765.8c-2.76,0-5,2.24-5,5v14.67c0,2.76,2.24,5,5,5h24.67c2.76,0,5-2.24,5-5
			V473.01z"/>
		<path class="st1" d="M845.47,473.01c0-2.76-2.24-5-5-5H815.8c-2.76,0-5,2.24-5,5v14.67c0,2.76,2.24,5,5,5h24.67c2.76,0,5-2.24,5-5
			V473.01z"/>
		<path class="st1" d="M895.47,473.01c0-2.76-2.24-5-5-5H865.8c-2.76,0-5,2.24-5,5v14.67c0,2.76,2.24,5,5,5h24.67c2.76,0,5-2.24,5-5
			V473.01z"/>
	</g>
	<g>
		<path class="st1" d="M745.47,507.01c0-2.76-2.24-5-5-5H715.8c-2.76,0-5,2.24-5,5v14.67c0,2.76,2.24,5,5,5h24.67c2.76,0,5-2.24,5-5
			V507.01z"/>
		<path class="st1" d="M795.47,507.01c0-2.76-2.24-5-5-5H765.8c-2.76,0-5,2.24-5,5v14.67c0,2.76,2.24,5,5,5h24.67c2.76,0,5-2.24,5-5
			V507.01z"/>
		<path class="st1" d="M845.47,507.01c0-2.76-2.24-5-5-5H815.8c-2.76,0-5,2.24-5,5v14.67c0,2.76,2.24,5,5,5h24.67c2.76,0,5-2.24,5-5
			V507.01z"/>
		<path class="st1" d="M895.47,507.01c0-2.76-2.24-5-5-5H865.8c-2.76,0-5,2.24-5,5v14.67c0,2.76,2.24,5,5,5h24.67c2.76,0,5-2.24,5-5
			V507.01z"/>
	</g>
</g>
<g>
	<g>
		
			<linearGradient id="SVGID_12_" gradientUnits="userSpaceOnUse" x1="-2314.4507" y1="398.4561" x2="-2293.4536" y2="398.4561" gradientTransform="matrix(0.9074 -0.4202 0.4202 0.9074 2278.6648 -790.8744)">
			<stop  offset="0.2957" style="stop-color:#FFDE8F"/>
			<stop  offset="0.4041" style="stop-color:#FDD189"/>
			<stop  offset="0.6233" style="stop-color:#F6AD79"/>
			<stop  offset="0.9309" style="stop-color:#ED695E"/>
			<stop  offset="1" style="stop-color:#EB5758"/>
		</linearGradient>
		<polyline class="st18" points="347.73,530.22 354.6,539.32 350.61,553.25 367.09,538.86 356.22,526.9 		"/>
		<path class="st19" d="M365.09,535.49l3.03,4.99l-23.29,16.03l-1.46-2.94l4.92-6.79c0,0,3.5-9.52,4.28-9.1
			c0.78,0.42,4.96,2.77,7.03,1.03c2.07-1.74,3.46-5.17,3.46-5.17L365.09,535.49z"/>
	</g>
	<g>
		
			<linearGradient id="SVGID_13_" gradientUnits="userSpaceOnUse" x1="-2924.5947" y1="1610.7021" x2="-2903.5991" y2="1610.7021" gradientTransform="matrix(0.7457 0.6663 -0.6663 0.7457 3477.1372 1270.1499)">
			<stop  offset="0.2957" style="stop-color:#FFDE8F"/>
			<stop  offset="0.4041" style="stop-color:#FDD189"/>
			<stop  offset="0.6233" style="stop-color:#F6AD79"/>
			<stop  offset="0.9309" style="stop-color:#ED695E"/>
			<stop  offset="1" style="stop-color:#EB5758"/>
		</linearGradient>
		<polyline class="st20" points="235.69,519.05 230.06,528.98 215.69,530.84 235.43,540.25 242.11,525.53 		"/>
		<path class="st19" d="M238.69,536.45l-2.67,5.19l-25.84-11.47l1.74-2.78l8.36,0.64c0,0,9.95-1.99,10-1.11
			c0.04,0.88,0.23,5.67,2.8,6.53c2.57,0.86,6.22,0.25,6.22,0.25L238.69,536.45z"/>
	</g>
	<g>
		<path class="st1" d="M254.38,349.3c-13.8,8.77-26.89,16.61-38.03,29.1c-1.11,1.35-2.16,2.75-3.13,4.18
			c-1.85,2.75-3.4,5.6-4.48,8.52l71.06,36.93c1.76-2.56,3.21-5.47,4.4-8.57c0.62-1.61,1.16-3.28,1.62-4.96
			c3.83-16.29,2.72-31.52,1.97-47.85c-0.04-1.42,0.01-2.84,0.18-4.25c0.25-1.56,0.84-2.89,1.63-4.09
			c10.72-13.16,26.9-18.28,38.82-29.4c1.13-0.95,2.28-1.88,3.46-2.79c1.15-1.3,2.19-2.69,3.12-4.13c1.79-2.79,3.19-5.79,4.15-8.88
			l-70.46-36.62c-1.98,2.56-3.63,5.43-4.89,8.5c-0.65,1.59-1.19,3.24-1.59,4.93c-0.07,1.48-0.17,2.96-0.3,4.43
			c-2.25,16.14,2.86,32.33-1.75,48.66c-0.53,1.34-1.28,2.58-2.41,3.68C256.69,347.66,255.56,348.51,254.38,349.3z"/>
		
			<linearGradient id="SVGID_14_" gradientUnits="userSpaceOnUse" x1="389.5041" y1="650.2957" x2="441.8488" y2="650.2957" gradientTransform="matrix(0.8873 0.4612 -0.4612 0.8873 202.3346 -411.0508)">
			<stop  offset="0.2957" style="stop-color:#FBB931"/>
			<stop  offset="0.4379" style="stop-color:#F8AC3D"/>
			<stop  offset="0.7234" style="stop-color:#F18651"/>
			<stop  offset="1" style="stop-color:#EB5758"/>
		</linearGradient>
		<path class="st21" d="M275.07,360.85c0.02-0.16,0.04-0.32,0.07-0.48c0.52-3.25,1.73-6.34,3.6-9.19c0.24-0.37,0.5-0.72,0.78-1.07
			c7.48-9.18,16.82-14.97,25.05-20.08c1.88-1.17,3.72-2.31,5.5-3.47l-35.68-18.54c0.08,2.12,0.2,4.29,0.32,6.49
			c0.55,9.68,1.18,20.65-2.04,32.04c-0.12,0.42-0.26,0.84-0.42,1.25c-1.26,3.17-3.09,5.94-5.45,8.23c-0.12,0.11-0.23,0.22-0.35,0.33
			c-0.74,0.66-31.29,20.82-39.41,29.6l46.45,24.14C276.01,398.43,274.95,361.82,275.07,360.85z"/>
		
			<linearGradient id="SVGID_15_" gradientUnits="userSpaceOnUse" x1="370.1728" y1="576.9626" x2="461.1729" y2="576.9626" gradientTransform="matrix(0.8873 0.4612 -0.4612 0.8873 202.3346 -411.0508)">
			<stop  offset="0" style="stop-color:#A8D1F1"/>
			<stop  offset="1" style="stop-color:#7D2580"/>
		</linearGradient>
		<polygon class="st22" points="340.44,323.19 259.7,281.23 269.69,262 350.43,303.97 		"/>
		
			<linearGradient id="SVGID_16_" gradientUnits="userSpaceOnUse" x1="370.177" y1="710.9621" x2="461.1772" y2="710.9621" gradientTransform="matrix(0.8873 0.4612 -0.4612 0.8873 202.3346 -411.0508)">
			<stop  offset="0" style="stop-color:#A8D1F1"/>
			<stop  offset="1" style="stop-color:#7D2580"/>
		</linearGradient>
		<polygon class="st23" points="278.65,442.09 197.9,400.13 207.89,380.9 288.64,422.87 		"/>
	</g>
	<g>
		
			<linearGradient id="SVGID_17_" gradientUnits="userSpaceOnUse" x1="-2690.3472" y1="42.636" x2="-2679.4741" y2="46.7636" gradientTransform="matrix(-0.9944 0.1053 0.1053 0.9944 -2359.9165 621.0653)">
			<stop  offset="0" style="stop-color:#EB5758"/>
			<stop  offset="1" style="stop-color:#FFDE8F"/>
		</linearGradient>
		<polyline class="st24" points="316.02,377.96 316.84,391.76 306.58,395.03 306.93,388.79 308.96,375.61 		"/>
		<path class="st19" d="M305.58,368.5c-5.7-4.76-5.83-13.58,0.92-13.9c6.75-0.32,17.26,12.16,17.26,12.16l-7.43,14.46l-3.04-3.1"/>
		<path class="st25" d="M316,377.55c0,0,0.36,7.17-8.61,7.67l1.12-4.66"/>
		
			<linearGradient id="SVGID_18_" gradientUnits="userSpaceOnUse" x1="1415.1329" y1="1355.9263" x2="1407.7325" y2="1332.1136" gradientTransform="matrix(0.9279 0.3728 -0.3728 0.9279 -498.8911 -1396.5015)">
			<stop  offset="0" style="stop-color:#FFFFFF"/>
			<stop  offset="0.0471" style="stop-color:#FFFEFC"/>
			<stop  offset="0.0991" style="stop-color:#FFFBF2"/>
			<stop  offset="0.1535" style="stop-color:#FFF5E0"/>
			<stop  offset="0.2094" style="stop-color:#FFEEC7"/>
			<stop  offset="0.2661" style="stop-color:#FFE4A4"/>
			<stop  offset="0.2957" style="stop-color:#FFDE8F"/>
			<stop  offset="0.4041" style="stop-color:#FDD189"/>
			<stop  offset="0.6233" style="stop-color:#F6AD79"/>
			<stop  offset="0.9309" style="stop-color:#ED695E"/>
			<stop  offset="1" style="stop-color:#EB5758"/>
		</linearGradient>
		<path class="st26" d="M303.72,367.41c0,0-4.03,15.93,0.65,17.11c4.68,1.18,8.73-4.92,8.73-4.92s0.91,1.9,2.79-0.69
			c1.88-2.59,2.34-6.86-0.04-6.84c-2.38,0.02-1.94,0.33-1.94,0.33l0.89-3.96L304,364.98L303.72,367.41z"/>
	</g>
	<polyline class="st27" points="296.3,446.72 301.78,453.13 308.84,494.48 345.25,535 357.33,527.33 329,485 328.67,447.67 
		322.31,443.01 	"/>
	<path class="st10" d="M296.13,446.98l-44.96,30.86l-20.33,44.33l11.33,7.33l26.67-40.67c0,0,35.65-12.78,45.7-17.3
		c10.05-4.53,12.15-23,12.15-23l-30.75-3.23L296.13,446.98z"/>
	<path class="st17" d="M317.03,387.3c0,0-13.04,2.58-16.95,13.12c-3.89,10.5-5.15,50.69-5.15,50.69l34.18-2.74
		C329.1,448.37,329.24,391.95,317.03,387.3z"/>
	<g>
		
			<linearGradient id="SVGID_19_" gradientUnits="userSpaceOnUse" x1="-2501.6326" y1="437.3039" x2="-2484.5916" y2="437.3039" gradientTransform="matrix(1 0 0 1 2752.3806 0)">
			<stop  offset="0.0914" style="stop-color:#FFDE8F"/>
			<stop  offset="0.2438" style="stop-color:#FFDB8E"/>
			<stop  offset="0.3862" style="stop-color:#FDD48A"/>
			<stop  offset="0.5247" style="stop-color:#FBC685"/>
			<stop  offset="0.6606" style="stop-color:#F7B27C"/>
			<stop  offset="0.7948" style="stop-color:#F39670"/>
			<stop  offset="0.9259" style="stop-color:#EE7161"/>
			<stop  offset="1" style="stop-color:#EB5758"/>
		</linearGradient>
		<path class="st28" d="M267.68,434.58c0,0-1.68,0.08-3.12-0.67c-1.43-0.75-3.45-4.28-3.45-4.28s-1-0.06-0.78,1.72
			c0.22,1.78,2.22,3.31,0.96,4.41c-1.44,1.25-1.59,0.65-3.32,1.4c-1.67,0.72-7.21-0.02-7.21-0.02s-0.42,2.7,2.14,3.42
			c1.67,1.61,2.86,3.81,4.42,4.25c1.56,0.44,2.67-0.11,2.67-0.11l3.45-1.78l4.34-1.33"/>
		<path class="st29" d="M303.35,398.84c0,0-10.45,20.48-10.87,22.16c-0.42,1.67-22.69,11.89-24.78,12.31
			c-2.09,0.42-0.77,9.11,0.48,9.53c1.25,0.42,24.31-7.32,27.22-8.46c2.46-0.97,21.99-23.36,20.17-32.35
			C313.14,389.97,304.61,396.33,303.35,398.84z"/>
	</g>
	<path class="st1" d="M306.41,379.1c0,0.87-0.66,1.57-1.47,1.57c-0.81,0-1.47-0.7-1.47-1.57c0-0.87,0.66-1.57,1.47-1.57
		C305.75,377.53,306.41,378.23,306.41,379.1z"/>
</g>
<g>
	<g>
		
			<linearGradient id="SVGID_20_" gradientUnits="userSpaceOnUse" x1="-6827.7988" y1="2793.9646" x2="-6801.3081" y2="2793.9646" gradientTransform="matrix(-0.7748 0.6323 0.6323 0.7748 -6081.5737 2572.7344)">
			<stop  offset="0.2957" style="stop-color:#FFDE8F"/>
			<stop  offset="0.4041" style="stop-color:#FDD189"/>
			<stop  offset="0.6233" style="stop-color:#F6AD79"/>
			<stop  offset="0.9309" style="stop-color:#ED695E"/>
			<stop  offset="1" style="stop-color:#EB5758"/>
		</linearGradient>
		<polyline class="st30" points="959.51,415.1 966.04,427.93 984.05,431.09 958.63,441.84 951.05,422.92 		"/>
		<path class="st10" d="M954.74,436.87l3.07,6.7l33.23-13.01l-2.04-3.61l-10.58,0.34c0,0-12.43-3.07-12.54-1.96
			c-0.11,1.11-0.61,7.13-3.9,8.08c-3.28,0.94-7.85-0.03-7.85-0.03L954.74,436.87z"/>
	</g>
	<g>
		
			<linearGradient id="SVGID_21_" gradientUnits="userSpaceOnUse" x1="-5997.4072" y1="3174.1475" x2="-5970.9141" y2="3174.1475" gradientTransform="matrix(-0.8881 -0.4599 -0.4599 0.8881 -2933.9729 -5120.1392)">
			<stop  offset="0.2957" style="stop-color:#FFDE8F"/>
			<stop  offset="0.4041" style="stop-color:#FDD189"/>
			<stop  offset="0.6233" style="stop-color:#F6AD79"/>
			<stop  offset="0.9309" style="stop-color:#ED695E"/>
			<stop  offset="1" style="stop-color:#EB5758"/>
		</linearGradient>
		<polyline class="st31" points="931.04,440.54 921.86,451.63 926.12,469.42 906.15,450.36 920.51,435.89 		"/>
		<path class="st10" d="M909.17,444.81l-4.92,5.48l25.13,25.33l2.5-3.31l-4.51-9.57c0,0-2.12-12.63-3.18-12.29
			c-1.06,0.34-6.79,2.27-8.96-0.37c-2.17-2.64-3.09-7.22-3.09-7.22L909.17,444.81z"/>
	</g>
	
		<linearGradient id="SVGID_22_" gradientUnits="userSpaceOnUse" x1="885.5219" y1="133.6055" x2="946.8519" y2="133.6055" gradientTransform="matrix(0.9865 -0.1639 0.1639 0.9865 25.8535 425.1798)">
		<stop  offset="0" style="stop-color:#E94F1E"/>
		<stop  offset="0.9624" style="stop-color:#F39405"/>
	</linearGradient>
	<path class="st32" d="M911.38,374.06c1.99,1.42,40.92,24.75,37.6,25.89c-3.32,1.13-19.73,50.02-19.73,50.02l-16.2-9.58l13.09-37.23
		c0,0-39.41-15.65-41.11-15.37"/>
	<path class="st19" d="M877.5,306.53c-0.6-0.1-8.7-12.8-8.7-12.8l0.34-9.84l23.19-11.52c0,0,10.4,12.61-5.21,18.32"/>
	<g>
		
			<linearGradient id="SVGID_23_" gradientUnits="userSpaceOnUse" x1="3426.6638" y1="28.6067" x2="3431.0437" y2="28.6067" gradientTransform="matrix(-0.9865 0.1639 0.1639 0.9865 4311.5273 -286.4553)">
			<stop  offset="0.096" style="stop-color:#FFDE8F"/>
			<stop  offset="0.2254" style="stop-color:#FEDB8D"/>
			<stop  offset="0.3682" style="stop-color:#FDD28A"/>
			<stop  offset="0.5176" style="stop-color:#FAC283"/>
			<stop  offset="0.6713" style="stop-color:#F6AA78"/>
			<stop  offset="0.8286" style="stop-color:#F1886A"/>
			<stop  offset="0.9865" style="stop-color:#EB5C59"/>
			<stop  offset="1" style="stop-color:#EB5758"/>
		</linearGradient>
		<polyline class="st33" points="936.05,304.83 935.11,301.66 934.45,297.63 933.53,298.66 933.33,300.33 932.46,309.94 		"/>
		
			<linearGradient id="SVGID_24_" gradientUnits="userSpaceOnUse" x1="868.6538" y1="49.9685" x2="914.9603" y2="49.9685" gradientTransform="matrix(0.9865 -0.1639 0.1639 0.9865 25.8535 425.1798)">
			<stop  offset="0" style="stop-color:#A8D1F1"/>
			<stop  offset="1" style="stop-color:#7D2580"/>
		</linearGradient>
		<path class="st34" d="M891.98,315.36l25.19,15.74l10.76-19.02l7.46,4.91c0,0-11.04,26.15-14.04,26.65
			c-2.99,0.5-30.34-11.17-30.34-11.17"/>
		<path class="st1" d="M891.35,312.72"/>
		
			<linearGradient id="SVGID_25_" gradientUnits="userSpaceOnUse" x1="-3401.3801" y1="145.1064" x2="-3380.6904" y2="145.1064" gradientTransform="matrix(0.9985 -0.0551 0.0551 0.9985 4263.5464 -17.888)">
			<stop  offset="0.096" style="stop-color:#FFDE8F"/>
			<stop  offset="0.2254" style="stop-color:#FEDB8D"/>
			<stop  offset="0.3682" style="stop-color:#FDD28A"/>
			<stop  offset="0.5176" style="stop-color:#FAC283"/>
			<stop  offset="0.6713" style="stop-color:#F6AA78"/>
			<stop  offset="0.8286" style="stop-color:#F1886A"/>
			<stop  offset="0.9865" style="stop-color:#EB5C59"/>
			<stop  offset="1" style="stop-color:#EB5758"/>
		</linearGradient>
		<polygon class="st35" points="879.62,298.16 875.39,316.7 877.4,330.31 896.78,328.81 887.35,315.46 887.53,299.8 		"/>
		<path class="st36" d="M880.16,301.33c0.27,1.13,1.84,7.6,6.84,8.47v-3.66l-6.51-5.25"/>
		<path class="st17" d="M864.54,358.07c1.16-6.33-5.81-26.44-2.06-36.84c1.08-3,12.44-6.4,13.56-6.94c2.45-1.18,4.72,0.34,8.49,0.18
			c0.14-0.01,2.78-1.5,2.78-1.5s8.85,2.97,10.73,8.4c1.67,4.84-1.73,21.6-0.62,30.29c1.24,9.72,13.44,17.06,13.44,17.06l-40.19,11.1
			C870.68,379.81,863.05,366.22,864.54,358.07z"/>
		
			<linearGradient id="SVGID_26_" gradientUnits="userSpaceOnUse" x1="813.8828" y1="117.6901" x2="903.8337" y2="117.6901" gradientTransform="matrix(0.9865 -0.1639 0.1639 0.9865 25.8535 425.1798)">
			<stop  offset="0" style="stop-color:#E94F1E"/>
			<stop  offset="0.9624" style="stop-color:#F39405"/>
		</linearGradient>
		<path class="st37" d="M866.8,375.93c0,0,3.42,15.97,15.2,14.7c20.09-2.17,40.84-10,40.84-10s-4.68,9.74,4.79,17.12
			c25.39,19.78,19.66,28.04,20.18,27.66l16.82-9.51l-35.38-55.61L866.8,375.93z"/>
		<g>
			<g>
				<polygon class="st10" points="899.34,365.54 938.91,358.96 944.01,333.59 904.43,340.17 				"/>
				
					<rect x="890.02" y="363.25" transform="matrix(0.9865 -0.1639 0.1639 0.9865 -47.389 154.6566)" class="st38" width="47.22" height="2.58"/>
			</g>
			<path class="st1" d="M918.73,351.72c0.21,1.27,1.42,2.13,2.68,1.92c1.28-0.21,2.14-1.42,1.93-2.69
				c-0.21-1.27-1.42-2.13-2.69-1.92C919.38,349.25,918.52,350.45,918.73,351.72z"/>
		</g>
		
			<linearGradient id="SVGID_27_" gradientUnits="userSpaceOnUse" x1="3475.9363" y1="79.9737" x2="3495.6189" y2="79.9737" gradientTransform="matrix(-0.9865 0.1639 0.1639 0.9865 4311.5273 -286.4553)">
			<stop  offset="0.096" style="stop-color:#FFDE8F"/>
			<stop  offset="0.2558" style="stop-color:#FFDB8E"/>
			<stop  offset="0.3736" style="stop-color:#FED68C"/>
			<stop  offset="0.4517" style="stop-color:#FDD08A"/>
			<stop  offset="0.5765" style="stop-color:#FABF82"/>
			<stop  offset="0.7323" style="stop-color:#F5A075"/>
			<stop  offset="0.9116" style="stop-color:#EE7362"/>
			<stop  offset="1" style="stop-color:#EB5758"/>
		</linearGradient>
		<polyline class="st39" points="882.03,360.14 894.82,361.01 900.58,365.27 894.48,366.6 880.79,366.26 		"/>
		
			<linearGradient id="SVGID_28_" gradientUnits="userSpaceOnUse" x1="3142.0046" y1="-1200.2797" x2="3167.5151" y2="-1200.2797" gradientTransform="matrix(-0.295 0.9555 0.9555 0.295 3013.5364 -2351.4778)">
			<stop  offset="0.096" style="stop-color:#FFDE8F"/>
			<stop  offset="0.2254" style="stop-color:#FEDB8D"/>
			<stop  offset="0.3682" style="stop-color:#FDD28A"/>
			<stop  offset="0.5176" style="stop-color:#FAC283"/>
			<stop  offset="0.6713" style="stop-color:#F6AA78"/>
			<stop  offset="0.8286" style="stop-color:#F1886A"/>
			<stop  offset="0.9865" style="stop-color:#EB5C59"/>
			<stop  offset="1" style="stop-color:#EB5758"/>
		</linearGradient>
		<polyline class="st40" points="928.38,314.08 940.6,292.72 943.1,298.26 943.84,302.93 939.59,311.36 936.76,312.86 
			933.69,317.29 		"/>
		
			<linearGradient id="SVGID_29_" gradientUnits="userSpaceOnUse" x1="818.0834" y1="58.9156" x2="857.7504" y2="58.9156" gradientTransform="matrix(0.9865 -0.1639 0.1639 0.9865 25.8535 425.1798)">
			<stop  offset="0" style="stop-color:#A8D1F1"/>
			<stop  offset="1" style="stop-color:#7D2580"/>
		</linearGradient>
		<path class="st41" d="M872.73,335.4c0.1-5.82-5.03-16.78-11.21-14.69c0,0-19.97,43.13-15.97,44.36
			c3.99,1.23,35.98,3.09,35.98,3.09l2.82-9.38l-24.94-2.43"/>
		<path class="st42" d="M883.37,296.86c0.12,2.17-1.54,4.03-3.7,4.15c-2.16,0.12-4.02-1.55-4.14-3.72c-0.12-2.17,1.54-4.02,3.7-4.14
			C881.4,293.03,883.25,294.69,883.37,296.86z"/>
		
			<linearGradient id="SVGID_30_" gradientUnits="userSpaceOnUse" x1="-3389.9795" y1="139.1018" x2="-3389.9795" y2="116.6884" gradientTransform="matrix(0.9985 -0.0551 0.0551 0.9985 4263.5464 -17.888)">
			<stop  offset="0.096" style="stop-color:#FFDE8F"/>
			<stop  offset="0.2254" style="stop-color:#FEDB8D"/>
			<stop  offset="0.3682" style="stop-color:#FDD28A"/>
			<stop  offset="0.5176" style="stop-color:#FAC283"/>
			<stop  offset="0.6713" style="stop-color:#F6AA78"/>
			<stop  offset="0.8286" style="stop-color:#F1886A"/>
			<stop  offset="0.9865" style="stop-color:#EB5C59"/>
			<stop  offset="1" style="stop-color:#EB5758"/>
		</linearGradient>
		<path class="st43" d="M890.96,285.09l2.47,11.58c0,0,0.61,12.61-6.89,10.86c-6.18-1.45-8.46-11.23-8.75-14.36
			c-0.06-0.66,2.98,0.38,2.98,0.38l0.03-5.55L890.96,285.09z"/>
		<path class="st1" d="M891.67,301.56l-4.5,0.61c0,0,1.85,2.16,3.13,1.5"/>
	</g>
	<path class="st17" d="M871.41,316.69c0,0,1.82-7.8,2.04-7.64c0.22,0.16,11.95,5.71,11.95,5.71"/>
	<polyline class="st17" points="885.92,314.37 887.7,310.38 890.68,313.68 	"/>
</g>
<polygon class="st1" points="714.33,302.33 670.21,294.27 701,265.33 736.46,272.4 "/>
<g>
	
		<ellipse transform="matrix(0.0386 -0.9993 0.9993 0.0386 471.9535 1005.4425)" class="st1" cx="758.49" cy="257.46" rx="71.25" ry="71.25"/>
	<g>
		<g>
			<g>
				<path class="st44" d="M780.56,278.6c-1.12-5.48-5.97-9.6-11.78-9.6c-5.81,0-10.66,4.12-11.78,9.6c-0.16,0.78-0.25,1.6-0.25,2.43
					c0,1.93,0.46,3.76,1.27,5.38c1.97,3.94,6.05,6.65,10.76,6.65c4.71,0,8.78-2.71,10.76-6.65c0.81-1.62,1.27-3.45,1.27-5.38
					C780.81,280.2,780.72,279.38,780.56,278.6z"/>
				<linearGradient id="SVGID_31_" gradientUnits="userSpaceOnUse" x1="775.0529" y1="294.0267" x2="767.4875" y2="278.1673">
					<stop  offset="0" style="stop-color:#F29100"/>
					<stop  offset="1" style="stop-color:#FBE90F;stop-opacity:0"/>
				</linearGradient>
				<path class="st45" d="M780.66,278.6c-0.12-0.57-0.28-1.12-0.47-1.66c-0.26,0.88-0.6,1.73-1,2.53c-2.55,5.09-7.82,8.59-13.9,8.59
					c-2.61,0-5.07-0.65-7.23-1.79c0.02,0.04,0.04,0.09,0.06,0.13c1.97,3.94,6.05,6.65,10.76,6.65c4.71,0,8.78-2.71,10.76-6.65
					c0.81-1.62,1.27-3.45,1.27-5.38C780.91,280.2,780.83,279.38,780.66,278.6z"/>
				<linearGradient id="SVGID_32_" gradientUnits="userSpaceOnUse" x1="767.0901" y1="282.5031" x2="791.1467" y2="282.5031">
					<stop  offset="0" style="stop-color:#F29100"/>
					<stop  offset="1" style="stop-color:#FBE90F;stop-opacity:0"/>
				</linearGradient>
				<path class="st46" d="M780.56,278.6H757c-0.16,0.78-0.25,1.6-0.25,2.43c0,1.93,0.46,3.76,1.27,5.38h21.51
					c0.81-1.62,1.27-3.45,1.27-5.38C780.81,280.2,780.72,279.38,780.56,278.6z"/>
				<path class="st1" d="M766.06,287.15c0,1.36-1.1,2.46-2.46,2.46c-1.36,0-2.46-1.1-2.46-2.46s1.1-2.46,2.46-2.46
					C764.96,284.68,766.06,285.79,766.06,287.15z"/>
			</g>
			<g>
				<linearGradient id="SVGID_33_" gradientUnits="userSpaceOnUse" x1="747.2188" y1="228.0414" x2="761.6787" y2="228.0414">
					<stop  offset="0" style="stop-color:#E94F1E"/>
					<stop  offset="0.9624" style="stop-color:#F39405"/>
				</linearGradient>
				<path class="st47" d="M761.68,229.98c-0.72-3.83-4.33-6.45-8.22-5.88c-3.89,0.57-6.6,4.1-6.2,7.97L761.68,229.98z"/>
				
					<linearGradient id="SVGID_34_" gradientUnits="userSpaceOnUse" x1="887.002" y1="216.8495" x2="898.4865" y2="216.8495" gradientTransform="matrix(0.9897 -0.1429 0.1429 0.9897 -160.4968 141.2548)">
					<stop  offset="0" style="stop-color:#F29100"/>
					<stop  offset="1" style="stop-color:#FBE90F;stop-opacity:0"/>
				</linearGradient>
				<path class="st48" d="M760.12,230.21c-0.56-3.02-3.41-5.08-6.48-4.64c-3.06,0.45-5.2,3.23-4.89,6.28L760.12,230.21z"/>
				<path class="st1" d="M757.6,230.6c0.25,1.72-0.95,3.33-2.67,3.57c-1.73,0.25-3.33-0.95-3.58-2.67
					c-0.25-1.73,0.95-3.33,2.67-3.58C755.75,227.68,757.35,228.87,757.6,230.6z"/>
				<linearGradient id="SVGID_35_" gradientUnits="userSpaceOnUse" x1="737.318" y1="245.9187" x2="777.9775" y2="245.9187">
					<stop  offset="0" style="stop-color:#E94F1E"/>
					<stop  offset="0.9624" style="stop-color:#F39405"/>
				</linearGradient>
				<path class="st49" d="M774.31,243.63c0.45-11.78-10.12-12.85-10.12-12.85l-1.66,0.13l-16.39,2.37l-1.93,0.41
					c0,0-9.83,4.04-6.03,15.2c1.13,3.31,0.87,7.62-0.17,12.17l39.96-5.77C775.66,251.2,774.18,247.13,774.31,243.63z"/>
				<linearGradient id="SVGID_36_" gradientUnits="userSpaceOnUse" x1="726.6602" y1="274.3057" x2="794.9775" y2="274.3057">
					<stop  offset="0" style="stop-color:#F29100"/>
					<stop  offset="0.9892" style="stop-color:#E94E1B"/>
				</linearGradient>
				<path class="st50" d="M794.98,275.08c-3.39-2.7-7.98-7.25-11.97-12.37l-47.67,6.88c-2.6,6.66-6.09,12.86-8.67,16.3
					L794.98,275.08z"/>
				<linearGradient id="SVGID_37_" gradientUnits="userSpaceOnUse" x1="735.334" y1="262.4438" x2="783.0029" y2="262.4438">
					<stop  offset="0" style="stop-color:#E94F1E"/>
					<stop  offset="0.9624" style="stop-color:#F39405"/>
				</linearGradient>
				<path class="st51" d="M780.31,259.03c-0.84-1.24-1.62-2.49-2.33-3.74l-39.96,5.77c-0.32,1.4-0.71,2.82-1.16,4.24
					c-0.46,1.44-0.97,2.88-1.52,4.29l47.67-6.88C782.06,261.51,781.16,260.28,780.31,259.03z"/>
				
					<linearGradient id="SVGID_38_" gradientUnits="userSpaceOnUse" x1="892.41" y1="253.0368" x2="892.41" y2="226.9785" gradientTransform="matrix(0.9897 -0.1429 0.1429 0.9897 -160.4968 141.2548)">
					<stop  offset="0" style="stop-color:#F29100"/>
					<stop  offset="1" style="stop-color:#FBE90F;stop-opacity:0"/>
				</linearGradient>
				<path class="st52" d="M783,262.71c-0.94-1.2-1.84-2.44-2.69-3.69l-43.46,6.28c-0.46,1.44-0.97,2.88-1.52,4.29L783,262.71z"/>
				
					<linearGradient id="SVGID_39_" gradientUnits="userSpaceOnUse" x1="885.371" y1="223.053" x2="870.1373" y2="258.6872" gradientTransform="matrix(0.9897 -0.1429 0.1429 0.9897 -160.4968 141.2548)">
					<stop  offset="0" style="stop-color:#FFFFFF"/>
					<stop  offset="1" style="stop-color:#FFD000;stop-opacity:0"/>
				</linearGradient>
				<path class="st53" d="M730.89,283.12c5.65-9.31,12.33-25.34,9.1-34.85c-2.89-8.51,3.38-11.9,4.69-12.5l1.65-0.35l2.13-0.31
					c-2.05,3.01-3.16,7.3-1.26,12.9c2.95,8.68-3.02,26.08-8.51,33.91L730.89,283.12z"/>
				<linearGradient id="SVGID_40_" gradientUnits="userSpaceOnUse" x1="725.7117" y1="277.4294" x2="795.0424" y2="277.4294">
					<stop  offset="0" style="stop-color:#E94F1E"/>
					<stop  offset="0.9624" style="stop-color:#F39405"/>
				</linearGradient>
				<path class="st54" d="M794.98,272.43c0.49,3.38-1.8,6.51-5.11,6.99l-57.21,8.26c-3.31,0.48-6.39-1.88-6.88-5.26l0,0
					c-0.49-3.38,1.8-6.51,5.11-6.99l57.21-8.26C791.41,266.69,794.49,269.05,794.98,272.43L794.98,272.43z"/>
				
					<linearGradient id="SVGID_41_" gradientUnits="userSpaceOnUse" x1="891.9945" y1="280.0242" x2="891.9945" y2="253.7531" gradientTransform="matrix(0.9897 -0.1429 0.1429 0.9897 -160.4968 141.2548)">
					<stop  offset="0" style="stop-color:#F29100"/>
					<stop  offset="1" style="stop-color:#FBE90F;stop-opacity:0"/>
				</linearGradient>
				<path class="st55" d="M727.68,283.11c0.71,1.95,2.66,3.2,4.73,2.91l57.21-8.26c2.07-0.3,3.59-2.06,3.72-4.13L727.68,283.11z"/>
			</g>
		</g>
		<g>
			<g>
				<linearGradient id="SVGID_42_" gradientUnits="userSpaceOnUse" x1="776.7942" y1="233.9046" x2="787.0475" y2="233.9046">
					<stop  offset="0" style="stop-color:#A8D1F1"/>
					<stop  offset="1" style="stop-color:#7D2580"/>
				</linearGradient>
				<path class="st56" d="M785.61,241.46c-0.07,0-0.14-0.01-0.22-0.02c-0.69-0.12-1.15-0.77-1.03-1.46
					c0.86-4.99-1.95-9.68-6.68-11.16c-0.67-0.21-1.04-0.92-0.83-1.59c0.21-0.67,0.92-1.04,1.59-0.83c5.95,1.86,9.49,7.75,8.42,14
					C786.75,241.03,786.22,241.46,785.61,241.46z"/>
			</g>
			<g>
				<linearGradient id="SVGID_43_" gradientUnits="userSpaceOnUse" x1="780.2532" y1="231.7278" x2="793.6727" y2="231.7278">
					<stop  offset="0" style="stop-color:#A8D1F1"/>
					<stop  offset="1" style="stop-color:#7D2580"/>
				</linearGradient>
				<path class="st57" d="M791.86,241.6c-0.12,0-0.24-0.02-0.36-0.05c-0.67-0.2-1.05-0.9-0.85-1.58c1.02-3.41,0.46-7.15-1.52-10.29
					c-1.84-2.9-4.68-4.84-7.79-5.31c-0.69-0.11-1.16-0.75-1.06-1.44c0.11-0.69,0.75-1.17,1.44-1.06c3.84,0.58,7.32,2.94,9.55,6.46
					c2.38,3.75,3.04,8.26,1.81,12.37C792.91,241.24,792.4,241.6,791.86,241.6z"/>
			</g>
		</g>
		<g>
			<g>
				<linearGradient id="SVGID_44_" gradientUnits="userSpaceOnUse" x1="728.5555" y1="233.9046" x2="738.8082" y2="233.9046">
					<stop  offset="0" style="stop-color:#A8D1F1"/>
					<stop  offset="1" style="stop-color:#7D2580"/>
				</linearGradient>
				<path class="st58" d="M729.99,241.46c0.07,0,0.14-0.01,0.22-0.02c0.69-0.12,1.15-0.77,1.03-1.46
					c-0.86-4.99,1.95-9.68,6.68-11.16c0.67-0.21,1.04-0.92,0.83-1.59c-0.21-0.67-0.92-1.04-1.59-0.83c-5.95,1.86-9.49,7.75-8.42,14
					C728.85,241.03,729.39,241.46,729.99,241.46z"/>
			</g>
			<g>
				<linearGradient id="SVGID_45_" gradientUnits="userSpaceOnUse" x1="721.9305" y1="231.7278" x2="735.3489" y2="231.7278">
					<stop  offset="0" style="stop-color:#A8D1F1"/>
					<stop  offset="1" style="stop-color:#7D2580"/>
				</linearGradient>
				<path class="st59" d="M723.75,241.6c0.12,0,0.24-0.02,0.36-0.05c0.67-0.2,1.05-0.9,0.85-1.58c-1.01-3.41-0.46-7.15,1.53-10.29
					c1.84-2.9,4.68-4.84,7.79-5.31c0.69-0.11,1.17-0.75,1.06-1.44c-0.1-0.69-0.75-1.17-1.44-1.06c-3.84,0.58-7.32,2.94-9.55,6.46
					c-2.38,3.75-3.04,8.26-1.81,12.37C722.7,241.24,723.2,241.6,723.75,241.6z"/>
			</g>
		</g>
	</g>
</g>
<g>
	<path class="st60" d="M323.96,185.42c0.47-14.39-5.31-27.54-14.89-36.82c4.86,7.9,7.54,17.27,7.21,27.23
		c-0.89,27.05-23.54,48.25-50.59,47.36c-12.66-0.42-24.03-5.6-32.46-13.77c8.33,13.55,23.07,22.79,40.15,23.36
		C300.42,233.67,323.07,212.47,323.96,185.42z"/>
	<g>
		<linearGradient id="SVGID_46_" gradientUnits="userSpaceOnUse" x1="220.9883" y1="178" x2="318.9863" y2="178">
			<stop  offset="0" style="stop-color:#E94F1E"/>
			<stop  offset="0.9624" style="stop-color:#F39405"/>
		</linearGradient>
		<circle class="st61" cx="269.99" cy="178" r="49"/>
		<path class="st1" d="M309.32,178c0,21.72-17.61,39.33-39.33,39.33c-21.72,0-39.33-17.61-39.33-39.33
			c0-21.72,17.61-39.33,39.33-39.33C291.71,138.67,309.32,156.28,309.32,178z"/>
		<linearGradient id="SVGID_47_" gradientUnits="userSpaceOnUse" x1="240.3311" y1="178" x2="299.6436" y2="178">
			<stop  offset="0" style="stop-color:#E94F1E"/>
			<stop  offset="0.9624" style="stop-color:#F39405"/>
		</linearGradient>
		<circle class="st62" cx="269.99" cy="178" r="29.66"/>
		<path class="st1" d="M289.97,178c0,11.04-8.95,19.99-19.99,19.99c-11.04,0-19.99-8.95-19.99-19.99c0-11.04,8.95-19.99,19.99-19.99
			C281.03,158.01,289.97,166.96,289.97,178z"/>
		<circle class="st10" cx="269.99" cy="178" r="10.32"/>
	</g>
</g>
<linearGradient id="SVGID_48_" gradientUnits="userSpaceOnUse" x1="431.025" y1="-403.3639" x2="561.1462" y2="-403.3639" gradientTransform="matrix(0.9708 -0.2397 0.2397 0.9708 -273.1732 881.5964)">
	<stop  offset="0" style="stop-color:#FFFFFF"/>
	<stop  offset="1" style="stop-color:#A8D1F1"/>
</linearGradient>
<path class="st63" d="M81.23,338.26c-0.94-1.63-1.83-3.17-2.67-4.62c-0.84-1.45-1.54-2.86-2.23-4.14c-0.69-1.28-1.33-2.45-1.85-3.54
	c-0.71-1.42-1.3-2.61-1.79-3.62c1.32-3.64,10.08-31.18-17.54-51.07c0,0-17.7,32.66,17.05,51.29c0.32,1.06,0.73,2.35,1.24,3.83
	c0.77,2.31,1.84,5.07,3.11,8.22c0.67,1.56,1.38,3.22,2.13,4.96c0.72,1.77,1.85,3.44,2.83,5.28c0.81,1.41,1.62,2.9,2.49,4.41
	c-1.64-0.84-3.8-1.94-5.98-3.05c-1.09-0.55-2.19-1.12-3.21-1.63c-0.39-0.18-0.76-0.36-1.12-0.53
	c-13.86-39.27-43.42-31.56-43.42-31.56c19.56,39.04,37.14,34.8,42.11,32.55c0.57,0.27,1.18,0.55,1.82,0.85
	c1.02,0.52,2.11,1.07,3.18,1.62c2.17,1.11,4.34,2.21,5.97,3.05c0.22,0.08,0.37,0.25,0.59,0.28c0.21,0.05,0.41,0.09,0.6,0.13
	c0.2,0.04,0.34,0.07,0.51,0.1c1.08,1.74,2.19,3.52,3.33,5.36c0.64,1.01,1.25,2.05,1.93,3.08c0.69,1.01,1.4,2.03,2.11,3.06
	c1.43,2.07,2.89,4.17,4.37,6.32c1.58,2.12,3.11,4.2,4.78,6.32c0.79,1,1.6,2.01,2.41,3.01c-0.3-0.22-0.59-0.44-0.92-0.64
	c-0.57-0.38-1.15-0.76-1.74-1.14c-1.16-0.76-2.32-1.54-3.42-2.25c-1.13-0.66-2.19-1.28-3.1-1.81c-0.24-0.11-0.42-0.3-0.65-0.37
	c-0.23-0.07-0.46-0.13-0.67-0.21c-0.2-0.06-0.34-0.08-0.52-0.13c-3.58-5.42-19.46-25.97-50.17-17.6c0,0,14.23,34.26,50.51,19.05
	c0.05,0.05,0.1,0.09,0.15,0.15c0.18,0.16,0.42,0.23,0.64,0.37c0.89,0.52,1.93,1.13,3.04,1.77c1.07,0.71,2.23,1.46,3.38,2.23
	c0.57,0.38,1.15,0.75,1.72,1.12c0.58,0.35,1.1,0.77,1.6,1.16c1.02,0.8,1.97,1.54,2.78,2.17c0.21,0.14,0.36,0.36,0.59,0.45
	c0.13,0.06,0.26,0.12,0.38,0.18c3.12,3.85,6.26,7.73,9.15,11.77c1.65,2.19,3.11,4.5,4.6,6.76c0.74,1.14,1.38,2.34,2.07,3.49
	c0.67,1.18,1.39,2.32,1.96,3.53c0.14,0.27,0.27,0.53,0.41,0.81c-0.16-0.12-0.32-0.25-0.5-0.37c-0.72-0.55-1.51-1.09-2.36-1.61
	c-0.82-0.57-1.75-1.01-2.65-1.53c-0.93-0.45-1.89-0.91-2.88-1.3c-0.93-0.3-1.84-0.68-2.79-0.9c0.14-0.13,0.28-0.25,0.42-0.38
	c0,0-22.45-23.15-49.84-3.67c0,0,22.16,28.17,48.13,5.22c0.23,0.06,0.46,0.11,0.69,0.16c0.98,0.19,1.9,0.61,2.86,0.92
	c0.94,0.36,1.85,0.81,2.75,1.24c0.86,0.5,1.76,0.92,2.54,1.46c0.81,0.5,1.57,1.02,2.27,1.54c0.72,0.5,1.34,1.04,1.94,1.52
	c0.31,0.23,0.53,0.53,0.83,0.71c0.04,0.03,0.08,0.06,0.13,0.09c0.53,1.08,1.04,2.17,1.48,3.28c0.51,1.21,1.04,2.4,1.55,3.6
	c0.46,1.22,0.88,2.45,1.31,3.64c0.44,1.21,0.86,2.4,1.29,3.59c0.36,1.21,0.72,2.41,1.06,3.59c0.69,2.38,1.42,4.67,1.91,6.98
	c0.53,2.29,1.06,4.52,1.57,6.69c0.09,0.51,0.19,1.02,0.28,1.53c-0.32-0.39-0.65-0.77-1-1.14c-1.54-1.65-3.35-2.97-4.81-3.81
	c-0.18-0.09-0.32-0.25-0.52-0.29c-0.2-0.05-0.38-0.08-0.55-0.12c-0.24-0.04-0.42-0.06-0.61-0.09c-1.74-2.93-15.3-23.99-41.31-14.64
	c0,0,12.51,30.13,40.94,15.26c0.14,0.14,0.29,0.28,0.46,0.46c0.12,0.12,0.25,0.25,0.38,0.39c0.13,0.12,0.33,0.16,0.49,0.28
	c1.35,0.78,3.06,2.03,4.48,3.56c0.73,0.75,1.37,1.57,1.9,2.38c0.29,0.39,0.51,0.81,0.73,1.19c0.04,0.06,0.06,0.11,0.09,0.17
	c0.08,0.4,0.15,0.79,0.22,1.18c0.18,1.01,0.37,2.01,0.54,2.98c0.16,0.97,0.26,1.92,0.47,2.84c0.38,1.85,0.74,3.59,1.08,5.24
	c0.73,3.29,1.18,6.18,1.58,8.57c0.81,4.77,1.33,7.5,1.33,7.5s-0.07-2.76-0.25-7.61c-0.1-2.43-0.19-5.38-0.51-8.75
	c-0.09-1.16-0.19-2.4-0.28-3.66c0.07-0.09,0.13-0.17,0.21-0.27c0.11-0.14,0.23-0.29,0.36-0.46c0.13-0.15,0.14-0.38,0.25-0.57
	c0.17-0.38,0.3-0.84,0.57-1.25c0.25-0.42,0.51-0.87,0.78-1.33c0.28-0.46,0.53-0.96,0.84-1.43c0.35-0.43,0.69-0.9,1.04-1.35
	c0.35-0.44,0.66-0.93,1.08-1.31c0.39-0.41,0.77-0.81,1.13-1.19c0.35-0.42,0.78-0.71,1.14-1.04c0.38-0.31,0.71-0.64,1.06-0.87
	c0.17-0.14,0.38-0.2,0.5-0.36c0.06-0.08,0.12-0.16,0.19-0.24c5.76-1.1,31.64-7.75,35.49-39.93c0,0-36.71,0.31-36.63,39.07
	c-0.13,0.09-0.25,0.21-0.41,0.3c-0.37,0.25-0.72,0.6-1.13,0.92c-0.39,0.35-0.84,0.68-1.21,1.1c-0.39,0.41-0.8,0.83-1.21,1.27
	c-0.43,0.41-0.76,0.91-1.14,1.38c-0.37,0.48-0.73,0.96-1.08,1.44c-0.33,0.49-0.6,1.01-0.89,1.49c-0.28,0.49-0.56,0.96-0.82,1.41
	c-0.14,0.21-0.23,0.43-0.32,0.64c-0.19-1.63-0.59-3.31-0.89-5.06c-0.38-2.05-0.78-4.19-1.18-6.4c-0.53-2.19-1.05-4.46-1.6-6.78
	c-0.5-2.34-1.24-4.7-1.94-7.12c-0.36-1.2-0.72-2.42-1.08-3.65c-0.22-0.62-0.45-1.26-0.67-1.88c0.06-0.06,0.1-0.12,0.16-0.17
	c0.1-0.12,0.08-0.28,0.15-0.41c0.39-1.13,0.93-2.63,1.45-4.12c0.53-1.5,1.05-3,1.44-4.14c0.02-0.1,0.08-0.19,0.11-0.28
	c6.04-4.06,25.46-19.77,17.53-49.73c0,0-34.49,14.02-19.35,50.56c-0.33,0.95-0.71,2.03-1.09,3.1c-0.39,1.12-0.78,2.23-1.12,3.19
	c-0.41-1.16-0.82-2.34-1.26-3.51c-0.53-1.23-1.06-2.46-1.59-3.7c-0.99-2.51-2.29-4.92-3.52-7.4c-0.59-1.24-1.33-2.41-2.01-3.62
	c-0.71-1.19-1.37-2.42-2.13-3.59c-1.15-1.73-2.29-3.47-3.48-5.18c-0.07-0.21-0.13-0.43-0.22-0.65c-0.42-1.23-1.02-2.61-1.46-4.2
	c-0.47-1.57-1-3.23-1.43-4.93c-0.93-3.36-1.71-6.77-2.29-9.34c-0.09-0.32-0.09-0.63-0.21-0.92c-0.06-0.15-0.12-0.3-0.19-0.45
	c2.47-3.17,20.03-27.53-4.4-51.63c0,0-23.18,36.1,3.16,51.42c0,0.04,0,0.06,0,0.1c0,0.28,0.01,0.56,0.02,0.87
	c0.02,0.3,0.15,0.6,0.21,0.92c0.57,2.58,1.36,6,2.3,9.4c0.43,1.71,0.97,3.39,1.45,4.98c0.04,0.11,0.08,0.22,0.12,0.33
	c-2.76-3.69-5.65-7.23-8.47-10.73c-1.72-2.1-3.38-4.21-5.02-6.28c-1.63-2.07-3.22-4.24-4.74-6.27c-1.46-2.11-2.9-4.2-4.3-6.24
	c-0.71-1.02-1.4-2.03-2.09-3.02c-0.67-1.01-1.27-2.04-1.9-3.04c-1.11-1.8-2.19-3.54-3.24-5.25c-0.16-0.55-0.34-1.09-0.44-1.68
	c-0.16-0.73-0.33-1.46-0.4-2.22c-0.12-0.75-0.19-1.5-0.23-2.26c-0.07-0.73-0.04-1.47-0.06-2.18c0.04-1.42,0.14-2.75,0.31-3.88
	c0.02-0.28,0.12-0.54,0.12-0.8c-0.01-0.27-0.01-0.52-0.02-0.76c0-0.02,0-0.03,0-0.05c4.4-4.09,17.71-18.9,3.42-37.36
	c0,0-21.1,17-4.89,38.26c-0.01,0.16-0.03,0.33-0.07,0.49c-0.18,1.18-0.29,2.58-0.33,4.07c0.02,0.75-0.01,1.51,0.06,2.29
	c0.04,0.69,0.11,1.39,0.21,2.08c-0.41-0.74-0.82-1.48-1.22-2.2C83,341.67,82.14,339.9,81.23,338.26z"/>
<g>
	<linearGradient id="SVGID_49_" gradientUnits="userSpaceOnUse" x1="153.6279" y1="451.4616" x2="194.2949" y2="451.4616">
		<stop  offset="0" style="stop-color:#EB5758"/>
		<stop  offset="1" style="stop-color:#F18756"/>
	</linearGradient>
	<path class="st64" d="M194.29,442.6c0-11.23-9.1-20.33-20.33-20.33c-11.23,0-20.33,9.1-20.33,20.33c0,0.15,0.01,0.3,0.01,0.45
		h-0.01v37.6h40.65v-37.23C194.29,443.15,194.29,442.88,194.29,442.6z"/>
	<g>
		<path class="st65" d="M181.61,533.61c0,0.94-0.76,1.71-1.7,1.71H94.35c-0.94,0-1.7-0.76-1.7-1.71v-60.33c0-0.94,0.76-1.7,1.7-1.7
			h85.56c0.94,0,1.7,0.76,1.7,1.7V533.61z"/>
		<linearGradient id="SVGID_50_" gradientUnits="userSpaceOnUse" x1="88" y1="499.5" x2="176" y2="499.5">
			<stop  offset="0" style="stop-color:#E94F1E"/>
			<stop  offset="0.9624" style="stop-color:#F39405"/>
		</linearGradient>
		<path class="st66" d="M176,529.75c0,0.94-0.85,1.25-1.79,1.25H89.55c-0.94,0-1.55-0.3-1.55-1.25v-60.08
			c0-0.94,0.61-1.68,1.55-1.68h84.65c0.94,0,1.79,0.74,1.79,1.68V529.75z"/>
		<g>
			<path class="st1" d="M177.7,422.06C177.98,422.03,177.95,422.01,177.7,422.06L177.7,422.06z"/>
			<path class="st1" d="M177.7,422.06c-0.34,0.04-1.14,0.09-2.57,0.09h-57.94c-9.41,0-18.41,6.27-18.41,15.68v47.58l33.75,19.05
				l34.43-19.66v-46.98C166.95,424.6,176.21,422.31,177.7,422.06z"/>
		</g>
		<linearGradient id="SVGID_51_" gradientUnits="userSpaceOnUse" x1="92.2461" y1="504.4006" x2="172.4854" y2="504.4006">
			<stop  offset="0" style="stop-color:#E94F1E"/>
			<stop  offset="0.9624" style="stop-color:#F39405"/>
		</linearGradient>
		<polyline class="st67" points="92.25,521.05 132.37,487.75 172.49,521.05 		"/>
		<g>
			<path class="st65" d="M161.16,453.59c0,0.52-0.42,0.94-0.94,0.94h-54.02c-0.52,0-0.94-0.42-0.94-0.94v-0.17
				c0-0.52,0.42-0.94,0.94-0.94h54.02c0.52,0,0.94,0.42,0.94,0.94V453.59z"/>
			<path class="st65" d="M161.16,457.93c0,0.52-0.42,0.94-0.94,0.94h-54.02c-0.52,0-0.94-0.42-0.94-0.94v-0.17
				c0-0.52,0.42-0.94,0.94-0.94h54.02c0.52,0,0.94,0.42,0.94,0.94V457.93z"/>
			<path class="st65" d="M161.16,462.26c0,0.52-0.42,0.94-0.94,0.94h-54.02c-0.52,0-0.94-0.42-0.94-0.94v-0.17
				c0-0.52,0.42-0.94,0.94-0.94h54.02c0.52,0,0.94,0.42,0.94,0.94V462.26z"/>
			<path class="st65" d="M161.16,466.59c0,0.52-0.42,0.94-0.94,0.94h-54.02c-0.52,0-0.94-0.42-0.94-0.94v-0.17
				c0-0.52,0.42-0.94,0.94-0.94h54.02c0.52,0,0.94,0.42,0.94,0.94V466.59z"/>
			<path class="st65" d="M161.16,470.93c0,0.52-0.42,0.94-0.94,0.94h-54.02c-0.52,0-0.94-0.42-0.94-0.94v-0.17
				c0-0.52,0.42-0.94,0.94-0.94h54.02c0.52,0,0.94,0.42,0.94,0.94V470.93z"/>
			<path class="st65" d="M161.16,475.26c0,0.52-0.42,0.94-0.94,0.94h-54.02c-0.52,0-0.94-0.42-0.94-0.94v-0.17
				c0-0.52,0.42-0.94,0.94-0.94h54.02c0.52,0,0.94,0.42,0.94,0.94V475.26z"/>
			<path class="st65" d="M161.16,479.6c0,0.52-0.42,0.94-0.94,0.94h-54.02c-0.52,0-0.94-0.42-0.94-0.94v-0.17
				c0-0.52,0.42-0.94,0.94-0.94h54.02c0.52,0,0.94,0.42,0.94,0.94V479.6z"/>
			<path class="st65" d="M161.16,483.93c0,0.52-0.42,0.94-0.94,0.94h-54.02c-0.52,0-0.94-0.42-0.94-0.94v-0.17
				c0-0.52,0.42-0.94,0.94-0.94h54.02c0.52,0,0.94,0.42,0.94,0.94V483.93z"/>
		</g>
		<rect x="105.6" y="435.78" class="st68" width="24.88" height="13.97"/>
		<rect x="133.89" y="435.78" class="st68" width="24.88" height="13.97"/>
		<polygon class="st65" points="144.54,497.56 149.48,495.26 172.35,521 		"/>
		<polygon class="st65" points="119.86,497.56 114.91,495.26 92.05,521 		"/>
	</g>
</g>
</svg>
